<svg width="189" height="155" viewBox="0 0 189 155" fill="none" xmlns="http://www.w3.org/2000/svg">
<path fill-rule="evenodd" clip-rule="evenodd" d="M17 18.8782C15.098 20.768 15 22.1899 15 48.0351C15 73.0945 15.142 75.333 16.829 76.8492C17.835 77.7534 19.158 78.4936 19.769 78.4936C20.537 78.4936 20.977 84.5217 21.191 97.9501C21.475 115.867 21.654 117.519 23.441 118.815C24.952 119.912 29.516 120.224 44.036 120.224C60.838 120.224 62.854 120.044 64.345 118.407C65.796 116.814 66 113.389 66 90.5866V64.5834H83.845C99.863 64.5834 101.859 64.3976 103.345 62.7661C105.728 60.151 105.797 34.7161 103.429 32.3622C102.086 31.0288 98.321 30.8013 77.629 30.8013C60.117 30.8013 53.067 31.1322 52.2 31.9936C51.472 32.717 51 36.2333 51 40.9359C51 48.5399 50.953 48.6859 48.5 48.6859H46V35.2278C46 22.2624 45.91 21.6792 43.545 19.3303C41.236 17.0351 40.439 16.8911 30.045 16.8911C20.333 16.8911 18.759 17.1305 17 18.8782ZM133.655 18.3407C120.414 23.0314 116.201 41.1247 126.009 51.1798L129.126 54.3742L125.979 54.9992C121.571 55.8755 117.005 59.3561 115.492 62.9926C114.787 64.6867 113.683 70.3213 113.038 75.5128C111.49 87.9874 111.33 88.4295 108.367 88.4295C106.993 88.4295 104.998 88.8925 103.934 89.4579C102.427 90.2597 102 90.1623 102 89.0177C102 85.7369 97.908 84.4552 87.432 84.4552C73.382 84.4552 72.302 85.7766 75.622 98.9059L77.243 105.321H101.122H125V113.384V121.447L122.25 119.69C120.737 118.723 118.612 117.33 117.527 116.595C115.393 115.146 111.138 114.842 109.452 116.017C108.875 116.418 107.383 118.198 106.135 119.974C102.91 124.562 99.83 125.04 94.987 121.706C89.157 117.692 86.362 118.085 81.696 123.578C77.48 128.54 74.117 129.477 70.441 126.715C67.036 124.155 62.493 124.82 59.537 128.31C58.065 130.049 57.03 132.356 57.199 133.527L57.5 135.625L114.388 135.881C156.947 136.074 171.633 135.844 172.696 134.966C175.402 132.736 172.102 121.024 167.392 116.139C165.303 113.972 164.775 112.193 164.195 105.366C163.528 97.5169 163.673 96.6634 167.812 84.1153C172.87 68.7803 173.389 63.9316 170.401 59.9334C167.468 56.0087 164.355 54.6793 158.054 54.6624L152.608 54.6475L155.857 51.316C159.759 47.3168 162.278 39.7903 161.374 34.8343C158.888 21.1943 146.465 13.802 133.655 18.3407ZM18.75 19.9056C17.155 20.8704 17 23.2778 17 47.1637C17 61.5738 17.273 74.0702 17.607 74.9346C18.113 76.2441 20.167 76.5064 29.907 76.5064C37.668 76.5064 42.004 76.105 42.8 75.3141C44.283 73.8406 44.491 23.1765 43.023 20.8654C41.85 19.0193 21.542 18.2155 18.75 19.9056ZM131.479 21.2927C126.002 24.5546 122.857 30.3512 122.857 37.1851C122.857 43.5312 124.582 47.2432 129.543 51.5713C135.126 56.4409 136.202 55.4026 134.077 47.1955C133.511 45.0096 133.037 41.7686 133.024 39.992C133.008 37.8439 132.514 36.7628 131.55 36.7628C130.752 36.7628 129.666 35.9938 129.137 35.0549C127.724 32.5461 130.153 28.5816 134.514 26.2795L138.182 24.343L141.091 27.7828C142.691 29.6746 144 31.5038 144 31.8466C144 32.858 148.897 34.7757 151.48 34.7757C154.808 34.7757 155.563 37.9403 153.323 42.4949C152.049 45.0852 150.902 46.1483 149.515 46.0251C146.322 45.7399 144.795 50.223 146.937 53.5863C148.258 55.6619 154.253 51.3398 157.157 46.2188C162.04 37.6074 158.534 25.1915 149.997 20.8634C144.417 18.0357 136.644 18.2155 131.479 21.2927ZM22.706 27.4499C22.318 27.8354 22 32.1009 22 36.9288V45.7052H30.038H38.075L37.788 36.5144L37.5 27.3237L30.456 27.0356C26.582 26.8776 23.095 27.0644 22.706 27.4499ZM24 35.958V42.1094L28.955 36.7032C31.68 33.7304 33.93 30.9633 33.955 30.5529C33.98 30.1426 31.75 29.8077 29 29.8077H24V35.958ZM30.723 37.5458L25.946 43.2212L30.581 43.5282C33.13 43.6971 35.416 43.6365 35.661 43.3931C35.906 43.1486 35.97 40.457 35.803 37.4107L35.5 31.8714L30.723 37.5458ZM53.684 33.4333C53.308 33.8079 53 34.7091 53 35.4384C53 36.5065 57.846 36.7628 78.073 36.7628C101.414 36.7628 103.123 36.6426 102.81 35.0241C102.502 33.4343 100.41 33.2624 78.421 33.02C65.192 32.8739 54.06 33.0597 53.684 33.4333ZM53 50.1574C53 61.1624 53.079 61.5837 55.25 62.1123C56.487 62.4144 67.625 62.5346 80 62.3796L102.5 62.0994L102.782 50.4247L103.063 38.75H78.032H53V50.1574ZM135.006 41.4824C135.009 42.9857 135.487 45.9188 136.069 48.0013C136.914 51.0248 137.549 51.7263 139.214 51.4789C141.51 51.1391 144.713 47.285 145.193 44.2843C145.433 42.785 144.411 41.9742 140.5 40.5623C137.75 39.5697 135.387 38.756 135.25 38.754C135.113 38.752 135.003 39.9791 135.006 41.4824ZM58 51.2096V59.6959L66.25 59.4068L74.5 59.1186L74.79 50.9215L75.081 42.7244H66.54H58V51.2096ZM60 51.2176V57.7226L66.25 57.4275L72.5 57.1314L72.798 50.9215L73.095 44.7116H66.548H60V51.2176ZM83.5 46.6987C83.106 47.3317 86.009 47.6923 91.5 47.6923C96.991 47.6923 99.894 47.3317 99.5 46.6987C99.16 46.1523 95.56 45.7052 91.5 45.7052C87.44 45.7052 83.84 46.1523 83.5 46.6987ZM46 62.4173C46 78.1806 45.848 78.3714 33 78.7271L23.5 78.9904L23.227 96.6485C23.056 107.7 23.35 115.043 24.012 116.272C25.007 118.12 26.163 118.237 43.335 118.237C56.208 118.237 61.954 117.885 62.8 117.045C63.671 116.179 64 108.831 64 90.218V64.5834L59.25 64.5685C52.6 64.5466 51.616 63.6335 51.016 56.9287C50.565 51.8982 50.215 51.1302 48.25 50.852C46.024 50.538 46 50.6632 46 62.4173ZM84 51.6667C84 52.247 87.353 52.6603 92.059 52.6603C97.177 52.6603 99.892 52.2976 99.5 51.6667C99.16 51.1202 95.534 50.6731 91.441 50.6731C87.147 50.6731 84 51.0934 84 51.6667ZM142.45 52.5639C141.928 53.0577 140.6 53.6757 139.5 53.939C138.361 54.2113 139.101 54.4666 141.219 54.5322C144.14 54.6226 144.814 54.3285 144.362 53.1571C143.685 51.4054 143.679 51.4034 142.45 52.5639ZM22 53.6539C22 54.2331 25.333 54.6475 30 54.6475C34.667 54.6475 38 54.2331 38 53.6539C38 53.0746 34.667 52.6603 30 52.6603C25.333 52.6603 22 53.0746 22 53.6539ZM123.27 58.1081C118.446 60.1917 116.51 64.2704 115.136 75.2396C113.152 91.0874 113.425 90.4167 108.956 90.4167C104.629 90.4167 102.699 92.535 103.668 96.2173C104.435 99.1305 107.705 98.9715 110.588 95.8814C112.523 93.8068 113.819 93.3975 118.452 93.3975H124V85.3901C124 80.3049 124.365 77.6073 125 77.9968C125.55 78.3346 126 81.5012 126 85.0334V91.456L128.503 89.8265C129.88 88.9303 132.468 88.1245 134.253 88.0351L137.5 87.8741L138.23 80.9478C139.317 70.6333 140.048 67.2064 140.953 68.1802C141.672 68.9532 140.898 79.0838 139.538 86.6907C139.101 89.1399 139.342 89.4231 141.87 89.4231C145.935 89.4231 148 86.641 148 81.1634C148 77.4563 148.58 75.8934 150.917 73.2932C154.544 69.2612 156.029 70.1713 152.541 74.2897C150.617 76.5621 150 78.4121 150 81.9116C150 85.5521 149.454 87.0753 147.424 89.0922C145.225 91.2771 144.238 91.5702 140.674 91.0973C138.378 90.7933 135.546 90.2547 134.379 89.901C132.846 89.437 131.285 90.1077 128.747 92.3214C125.728 94.9554 124.459 95.3846 119.689 95.3846C115.869 95.3846 113.63 95.8944 112.493 97.0241C110.96 98.5472 111.043 98.8254 113.672 100.963C116.362 103.15 117.28 103.264 132.5 103.292C141.3 103.309 150.196 102.854 152.269 102.282C159.247 100.357 162.165 96.1706 166.485 81.8867C171.348 65.8075 171.428 63.2569 167.184 59.4892L163.968 56.6346L145.234 56.6734C131.421 56.7022 125.651 57.0788 123.27 58.1081ZM22 58.6218C22 59.2011 25.333 59.6154 30 59.6154C34.667 59.6154 38 59.2011 38 58.6218C38 58.0426 34.667 57.6282 30 57.6282C25.333 57.6282 22 58.0426 22 58.6218ZM22 63.5898C22 64.169 25.333 64.5834 30 64.5834C34.667 64.5834 38 64.169 38 63.5898C38 63.0105 34.667 62.5962 30 62.5962C25.333 62.5962 22 63.0105 22 63.5898ZM30 84.4552C30 85.0682 35.167 85.4487 43.5 85.4487C51.833 85.4487 57 85.0682 57 84.4552C57 83.8421 51.833 83.4616 43.5 83.4616C35.167 83.4616 30 83.8421 30 84.4552ZM76.938 88.0072C75.868 89.288 75.862 90.685 76.904 95.6966C77.604 99.0649 78.389 102.161 78.648 102.577C79.427 103.83 103 103.498 103 102.234C103 99.9899 99.785 88.8826 98.788 87.6843C97.148 85.713 78.626 85.9863 76.938 88.0072ZM30 89.4231C30 90.0361 35.167 90.4167 43.5 90.4167C51.833 90.4167 57 90.0361 57 89.4231C57 88.8101 51.833 88.4295 43.5 88.4295C35.167 88.4295 30 88.8101 30 89.4231ZM30.514 93.3756C30.161 93.9419 30.49 94.6404 31.245 94.9276C33.746 95.8814 56.513 94.9405 56.253 93.8943C55.912 92.5221 31.353 92.0273 30.514 93.3756ZM106.75 100.102C105.787 100.32 105 101.137 105 101.916C105 102.911 106.21 103.333 109.059 103.333C111.496 103.333 112.872 102.938 112.503 102.345C111.535 100.788 108.665 99.669 106.75 100.102ZM157.923 101.467C154.27 104.299 149.019 105.27 137.211 105.297L126.922 105.321L127.211 114.014C127.488 122.359 127.59 122.698 129.745 122.473C130.98 122.343 135.398 119.884 139.564 117.008L147.138 111.779H155.12C162.616 111.779 163.07 111.658 162.565 109.792C162.269 108.699 162.021 105.905 162.014 103.582C161.998 98.8413 161.585 98.6277 157.923 101.467ZM29.372 108.953C28.267 113.327 30.792 114.263 43.691 114.263C53.709 114.263 55.231 114.033 57.023 112.253C58.63 110.656 58.828 109.838 57.988 108.278C57.014 106.471 55.854 106.314 43.484 106.314H30.038L29.372 108.953Z" fill="#6E508C"/>
</svg>
