<svg width="173" height="140" viewBox="0 0 173 140" fill="none" xmlns="http://www.w3.org/2000/svg">
<path fill-rule="evenodd" clip-rule="evenodd" d="M117.316 12.8512C106.966 17.5169 103.899 31.7919 111.498 39.9288C114.463 43.1051 114.58 43.687 112.25 43.6919C109.802 43.6969 104.337 47.1651 103.069 49.5173C102.487 50.5976 101.532 54.9783 100.947 59.2518C99.357 70.8609 99.235 71.2154 96.602 71.8717C95.273 72.2033 93.469 72.7474 92.593 73.081C91.552 73.4772 91 73.1466 91 72.1268C91 71.269 90.13 70.1043 89.066 69.5383C86.871 68.3727 71.079 68.1572 69.4 69.2702C66.454 71.2233 66.061 74.1295 67.875 80.5358L69.672 86.8795L74.507 87.1892C77.376 87.3729 80.344 88.2814 81.806 89.4233C84.967 91.8917 89.69 91.8668 93.5 89.3617C95.798 87.8505 98.197 87.3878 103.75 87.3829L111 87.3759V90.3199C111 92.2471 110.31 93.6302 109 94.3263C107.9 94.9111 106.983 96.3786 106.961 97.588C106.937 98.9622 105.717 100.538 103.711 101.787C100.887 103.545 100.465 104.384 100.209 108.737C99.949 113.16 99.442 114.127 95.459 117.801C90.316 122.543 89.834 125.294 93.704 127.814C96.118 129.386 99.77 129.609 127.764 129.898C155.177 130.181 159.426 130.022 161.56 128.634C163.972 127.064 164 126.871 164 111.75C164 93.2956 164.02 93.3334 154.019 93.3334H147.181L146.002 86.3969C145.007 80.5358 145.065 78.8041 146.376 75.2267C150.198 64.8022 153.087 53.4602 152.452 51.3721C152.08 50.1498 150.617 47.9207 149.201 46.4185C146.992 44.0762 145.838 43.688 141.091 43.688H135.556L137.636 41.6217C139.647 39.625 139.895 39.6081 145.04 41.1253C155.087 44.0881 160.32 42.698 162.167 36.5738C164.152 29.9968 159.679 19.8582 154.792 19.8582C153.77 19.8582 150.689 20.9871 147.946 22.3673C143.321 24.6946 142.913 24.7493 142.331 23.1119C140.974 19.2922 136.532 14.5868 132.616 12.8214C127.375 10.4583 122.605 10.4673 117.316 12.8512ZM118 15.0773C113.14 17.5596 109 23.8944 109 28.849C109 32.5436 113.004 39.5595 116.21 41.4817C117.7 42.3753 119.141 42.8857 119.412 42.6176C119.683 42.3485 119.378 39.3778 118.735 36.0168C117.891 31.6092 117.068 29.7773 115.783 29.4427C111.756 28.3972 114.572 21.1559 120.111 18.3122C124.155 16.2351 126.626 17.1992 132 22.9481C135.597 26.7966 136.957 27.6416 138.778 27.162C141.348 26.4858 141.132 24.1555 138.106 19.9197C133.276 13.158 125.45 11.2735 118 15.0773ZM52.073 14.99C50.739 15.5192 47.475 17.501 44.821 19.3945C42.167 21.288 39.685 22.8369 39.306 22.8369C38.927 22.8369 35.586 21.0497 31.883 18.8653C28.18 16.6809 24.701 14.8936 24.152 14.8936C20.452 14.8936 12.285 27.9941 13.419 32.1097C14.313 35.3525 40.371 50.0178 43.746 49.1768C45.564 48.723 46.122 48.9067 45.776 49.843C39.03 68.1224 19.589 119.759 19.341 120.059C19.152 120.288 16.457 120.817 13.351 121.235C10.245 121.654 6.98301 122.724 6.10201 123.615C4.63101 125.102 4.681 125.381 6.713 127.038C10.729 130.309 21.839 130.736 29.25 127.902C34.109 126.045 32.098 122.502 25.589 121.454C23.615 121.135 22 120.415 22 119.853C22 117.064 47.468 51.7156 48.111 52.8555C48.512 53.5684 54.239 68.4402 60.838 85.9054C67.436 103.371 73.145 118.442 73.524 119.397C74.068 120.766 73.693 121.135 71.756 121.135C68.229 121.135 63.248 123.031 62.64 124.607C61.857 126.632 64.1 127.972 70.359 129.22C78.556 130.854 90 128.357 90 124.935C90 123.611 83.583 121.135 80.155 121.135C78.554 121.135 76.798 120.577 76.251 119.894C75.102 118.46 49.765 51.5319 50.207 51.098C50.368 50.9392 53.149 52.359 56.387 54.2535C59.625 56.147 62.926 57.4487 63.722 57.1449C64.519 56.841 67.988 58.1576 71.431 60.07C78.756 64.1369 80.341 64.3196 82.443 61.3389C85.125 57.538 84.308 56.144 77.002 52.0641C73.154 49.9145 70.004 47.6973 70.002 47.1363C70.001 46.5754 68.611 44.9063 66.913 43.4268L63.827 40.7371L64.66 33.0281C65.753 22.9213 65.541 17.2339 64.004 15.3941C62.59 13.7031 55.888 13.4758 52.073 14.99ZM51.5 17.8426C49.3 18.9457 46.168 20.9107 44.54 22.2094L41.581 24.5705L47.29 27.7707C50.431 29.5301 53.056 31.5973 53.125 32.3639C53.194 33.1314 53.306 34.2156 53.375 34.7736C53.444 35.3327 55.357 36.8885 57.627 38.2329L61.754 40.6755L62.7 31.0115C63.925 18.4949 63.412 16.4654 58.934 16.111C56.972 15.9551 53.786 16.6978 51.5 17.8426ZM21.814 18.9805C17.296 23.4307 13.299 32.766 15.911 32.766C18.606 32.766 25.454 21.3833 24.78 18.0233C24.506 16.66 24.006 16.8219 21.814 18.9805ZM25.17 24.2458C23.889 27.1849 21.768 30.5905 20.458 31.8128L18.074 34.0359L27.287 39.4512C41.249 47.6586 41.736 47.8701 43.978 46.6786C46.56 45.3064 51.002 37.6978 50.992 34.6644C50.985 32.6627 49.145 31.2091 39.797 25.8156C33.645 22.266 28.361 19.2585 28.055 19.1324C27.75 19.0053 26.452 21.3068 25.17 24.2458ZM120.484 34.5036C121.315 40.0172 121.65 40.7092 123.486 40.7092C125.13 40.7092 129 36.0495 129 34.0707C129 32.7461 123.417 29.7873 120.919 29.7873C120.119 29.7873 119.987 31.2111 120.484 34.5036ZM130.667 35.4141C130.3 35.7775 130 37.5647 130 39.3857C130 43.2988 131.528 43.6344 135.44 40.5792L138.149 38.4633L135.324 36.6135C132.218 34.58 131.653 34.4351 130.667 35.4141ZM51.978 38.9717C51.966 39.6548 51.076 41.3298 50 42.6951C48.924 44.0603 48.036 45.6241 48.025 46.1702C48.007 47.0619 60.7 54.7341 62.631 54.9982C63.477 55.1144 68 48.8719 68 47.5871C68 46.8881 53.566 37.7305 52.465 37.7305C52.209 37.7305 51.99 38.2895 51.978 38.9717ZM125.559 42.2304C123.662 43.6552 123.668 43.688 125.809 43.688C127.09 43.688 128 43.0694 128 42.1986C128 40.4014 127.993 40.4024 125.559 42.2304ZM107.659 47.7132C104.65 50.0634 103.512 53.6538 101.923 65.8129C100.905 73.6043 100.586 74.4721 98.93 73.9498C96.115 73.0622 93 75.1781 93 77.9781C93 81.065 96.141 81.2973 99.23 78.4397C100.743 77.0407 102.759 76.4539 106.055 76.4539H110.733L110.232 69.5036C109.885 64.691 110.08 62.5532 110.866 62.5532C111.54 62.5532 112 64.3315 112 66.9399C112 69.3527 112.267 72.0166 112.593 72.8606C113.124 74.2338 113.44 74.2278 115.638 72.798C117.716 71.4457 118.706 71.3851 122.124 72.4019C127.808 74.0928 131 72.0216 131 66.645C131 63.8112 131.91 61.6556 134.562 58.2073C136.521 55.6595 138.554 53.8395 139.08 54.1622C139.606 54.4849 138.453 56.5858 136.518 58.8298C133.691 62.1084 133 63.7398 133 67.1276C133 72.5617 129.259 76.0051 124.516 74.9368C122.857 74.5634 120.589 74.0491 119.475 73.7939C118.208 73.503 116.412 74.2854 114.674 75.884C111.833 78.4983 110.86 78.7674 105.321 78.4705C103.265 78.3603 101.409 79.0266 100.071 80.3551C98.932 81.486 97.063 82.4114 95.917 82.4114C94.689 82.4114 94.009 82.9207 94.26 83.6525C94.864 85.408 133.427 84.7169 137 82.887C141.78 80.4395 143.827 76.9544 147.414 65.1576C149.386 58.6719 151 53.0094 151 52.5745C151 52.1396 149.835 50.409 148.411 48.729L145.822 45.6738H128.046C111.629 45.6738 110.07 45.8297 107.659 47.7132ZM67.956 52.7056C66.682 55.0687 67.25 55.6475 74.692 59.5675C79.111 61.8949 79.27 61.9088 80.617 60.0809C81.377 59.0473 81.995 57.9521 81.988 57.6473C81.976 57.0843 70.589 50.6383 69.606 50.6383C69.311 50.6383 68.569 51.5687 67.956 52.7056ZM121 50.9997C121 51.1973 120.573 53.5962 120.051 56.3287C119.091 61.3558 119.822 66.6371 121.555 67.198C122.095 67.3728 122.526 63.8946 122.561 59.0711C122.595 54.4332 122.258 50.6383 121.811 50.6383C121.365 50.6383 121 50.8012 121 50.9997ZM109.5 53.6171C108.577 55.1005 109.861 56.5958 112.059 56.5958C113.333 56.5958 114 55.9136 114 54.61C114 52.504 110.653 51.7653 109.5 53.6171ZM70.25 71.1359C68.702 71.7783 68.656 75.2108 70.119 80.9786L71.237 85.3901H81.73H92.223L91.54 81.7769C91.164 79.7891 90.326 76.5502 89.677 74.5783L88.496 70.9929L79.998 70.8043C75.324 70.701 70.938 70.85 70.25 71.1359ZM139.679 83.7746C137.334 85.5301 135.224 85.9342 127.179 86.1666C113.788 86.5538 113 86.7871 113 90.3735V93.3334H129.114H145.227L144.519 88.6171C143.499 81.8295 142.976 81.3063 139.679 83.7746ZM109.683 95.9646C109.307 96.3379 109 103.446 109 111.762C109 132.501 109.443 132.613 123 115.298C129.79 106.626 131.396 106.379 135.5 113.376C137.15 116.19 139.042 118.67 139.706 118.888C140.403 119.118 142.821 115.51 145.445 110.321C149.609 102.09 152.781 98.4111 154.362 99.9809C154.706 100.322 154.035 101.264 152.872 102.073C151.709 102.882 149.284 106.753 147.485 110.674C142.239 122.104 139.598 123.608 135.658 117.411C133.756 114.42 132.683 113.688 130.202 113.688C127.577 113.688 126.278 114.73 121.535 120.638L115.956 127.589L136.728 127.87C148.153 128.025 158.524 127.901 159.775 127.597C162.037 127.046 162.049 126.95 161.775 111.429L161.5 95.8156L135.933 95.5505C121.871 95.4056 110.059 95.5912 109.683 95.9646ZM9.75001 123.805C7.14201 124.482 7.63401 125.961 10.75 126.812C14.384 127.805 23.737 127.771 27.499 126.751C30.369 125.972 30.415 125.877 28.558 124.53C25.88 122.585 20.996 122.76 19.392 124.858C18.127 126.513 18.062 126.513 18.032 124.858C18.008 123.542 17.212 123.148 14.75 123.236C12.962 123.299 10.713 123.555 9.75001 123.805ZM66.75 123.805C60.337 125.469 71.581 128.738 79.838 127.611C88.562 126.419 89.426 124.253 81.53 123.369C77.598 122.929 77.049 123.084 77.588 124.479C77.941 125.392 77.718 126.099 77.076 126.099C76.449 126.099 75.678 125.429 75.362 124.61C74.802 123.162 70.703 122.779 66.75 123.805Z" fill="#6E508C"/>
</svg>
