<svg width="171" height="144" viewBox="0 0 171 144" fill="none" xmlns="http://www.w3.org/2000/svg">
<path fill-rule="evenodd" clip-rule="evenodd" d="M76 11.8567C70.713 12.9123 66.573 15.406 62.754 19.8363L59.308 23.8345H35.243H11.178L8.589 26.8903L6 29.945V59.7113C6 92.0657 6.26 93.7788 11.523 96.1612C13.51 97.06 14.007 97.8108 13.459 99.0849C12.051 102.362 11.779 112.024 12.993 115.677C14.632 120.606 19.601 126.038 24.491 128.244C28.864 130.218 34 130.681 34 129.103C34 128.557 32.904 128.11 31.565 128.11C22.556 128.11 14.044 118.461 14.044 108.248C14.044 98.9926 21.169 90.0715 29.558 88.8222C33.378 88.2531 33.842 87.8599 34.924 84.2728C36.948 77.5634 43.21 75.1918 51.654 77.9368C53.324 78.48 53.961 78.1562 54.492 76.4948C55.694 72.7319 61.329 67.2887 66.493 64.9003C81.002 58.1909 96.804 66.8835 100.07 83.371C101.077 88.4557 101.547 89.2403 103.86 89.7021C108.031 90.5343 113.265 94.5504 115.774 98.8436C119.045 104.438 118.589 114.208 114.791 119.906C110.626 126.157 105.481 128.11 93.184 128.11C87.061 128.11 83 128.507 83 129.103C83 129.701 87.101 130.097 93.304 130.097C102.326 130.097 104.24 129.784 108.691 127.581C114.462 124.725 118.775 119.329 119.671 113.847L120.262 110.234H139.494H158.727L161.33 107.649L163.933 105.064L164.216 80.8664C164.526 54.4231 164.239 51.4388 161.077 48.2936C159.157 46.3849 157.647 46.1475 145.538 45.8556L132.125 45.5308L131.455 42.3797C129.647 33.8807 123.994 29.8289 110.39 27.2786C102.866 25.8684 102.249 25.5436 97.087 20.2901C89.367 12.4327 83.957 10.2687 76 11.8567ZM10.174 28.1187C8.978 29.383 8 31.6174 8 33.0842V35.7517H51H94V32.7724C94 31.1169 93.111 28.9102 92 27.8069C90.069 25.8892 88.667 25.8207 51.174 25.8207H12.349L10.174 28.1187ZM8 63.6242C8 79.9716 8.391 90.2354 9.061 91.4787C9.644 92.5612 11.269 93.8801 12.671 94.4094C14.871 95.2396 15.754 94.892 19.12 91.872C21.265 89.9484 25.028 87.84 27.482 87.1885C30.804 86.3057 32.173 85.3563 32.842 83.4703C34.119 79.8703 38.638 75.7122 42.095 74.9585C43.716 74.6049 46.834 74.6158 49.022 74.9833C51.232 75.3537 53 75.2494 53 74.7489C53 72.8243 60.418 65.373 64.285 63.4146C72.572 59.2158 83.675 59.9745 90.75 65.2221L94 67.6323V52.6851V37.7379H51H8V63.6242ZM15 46.6759C15 47.3184 26.833 47.669 48.5 47.669C70.167 47.669 82 47.3184 82 46.6759C82 46.0333 70.167 45.6828 48.5 45.6828C26.833 45.6828 15 46.0333 15 46.6759ZM96.667 48.3314C96.3 48.6948 96 50.4824 96 52.3038V55.6138H129C160.919 55.6138 162 55.5512 162 53.7001C162 52.6464 160.814 50.8588 159.365 49.7277C156.834 47.7494 155.563 47.669 127.032 47.669C110.698 47.669 97.033 47.9669 96.667 48.3314ZM15 52.6345C15 53.277 26.833 53.6276 48.5 53.6276C70.167 53.6276 82 53.277 82 52.6345C82 51.9919 70.167 51.6414 48.5 51.6414C26.833 51.6414 15 51.9919 15 52.6345ZM96 63.5795C96 68.3384 96.525 70.3475 98.569 73.4152C99.982 75.5355 101.445 79.343 101.819 81.8754C102.466 86.25 102.774 86.6165 107.966 89.1896C114.424 92.3914 118.888 98.066 119.705 104.111L120.263 108.248H139.132C156.667 108.248 158.141 108.108 160 106.262C161.887 104.388 162 102.952 162 80.9379V57.6H129H96V63.5795ZM15 59.5862C15 60.1821 19 60.5793 25 60.5793C31 60.5793 35 60.1821 35 59.5862C35 58.9903 31 58.5931 25 58.5931C19 58.5931 15 58.9903 15 59.5862ZM15 65.5448C15 66.1407 18.98 66.5379 24.941 66.5379C30.49 66.5379 35.155 66.099 35.5 65.5448C35.897 64.9063 32.344 64.5517 25.559 64.5517C19.186 64.5517 15 64.945 15 65.5448ZM134.736 78.2089C129.939 91.9574 129.353 94.3448 130.776 94.3448C131.448 94.3448 141 67.1725 141 65.2608C141 64.8705 140.662 64.5527 140.25 64.5537C139.838 64.5557 137.356 70.7 134.736 78.2089ZM118.615 74.3666C113.123 79.9041 113.169 80.352 119.902 86.832C125.65 92.3626 126.365 90.3267 120.686 84.6015L115.993 79.8694L120.496 75.4798C124.814 71.2711 125.907 69.5172 124.212 69.5172C123.779 69.5172 121.26 71.7001 118.615 74.3666ZM145 70.3038C145 70.7358 147.027 73.0656 149.504 75.4798L154.007 79.8694L149.314 84.6015C146.733 87.2044 144.941 89.6524 145.333 90.0417C146.158 90.86 156 81.5437 156 79.9448C156 78.775 146.87 69.5172 145.716 69.5172C145.322 69.5172 145 69.8708 145 70.3038ZM17.596 80.7453C15.046 82.5964 15.832 86.8022 18.805 87.2213C23.228 87.844 25.459 84.0185 22.429 81.0084C20.519 79.1126 19.892 79.0778 17.596 80.7453ZM76.3 85.4913C72.392 86.9273 40.496 108.578 41.702 108.977C42.346 109.191 48.32 105.741 54.977 101.311C67.478 92.9942 70.906 91.0924 69.593 93.2028C69.189 93.8522 69.392 95.9904 70.045 97.9548L71.232 101.527L61.417 111.311C56.019 116.692 51.931 121.421 52.333 121.821C52.736 122.22 57.438 118.243 62.782 112.983L72.5 103.42L77.135 103.964L81.77 104.508L73.885 116.747C65.822 129.262 65.382 130.097 66.842 130.097C68.043 130.097 87.72 99.2726 88.508 96.1582C89.161 93.5732 87.112 88.1926 84.975 86.8807C82.602 85.4248 78.339 84.7415 76.3 85.4913ZM81 91.3655C83.2 93.5503 85 95.8116 85 96.3896C85 96.9676 85.486 97.1424 86.081 96.7779C87.443 95.9417 86.379 91.4589 84.267 89.131C83.4 88.1747 81.41 87.3931 79.845 87.3931H77L81 91.3655ZM74 90.3377C74 91.6595 79.859 98.1722 82.137 99.3828C85.437 101.137 84.309 97.7313 80.155 93.3934C76.46 89.5362 74 88.3147 74 90.3377ZM72.032 95.0897C71.99 99.2915 75.004 102.293 79.25 102.279L82.5 102.268L79.321 99.7791C77.573 98.4106 75.225 96.0698 74.103 94.5762L72.063 91.8621L72.032 95.0897Z" fill="#6E508C"/>
</svg>
