<svg width="176" height="139" viewBox="0 0 176 139" fill="none" xmlns="http://www.w3.org/2000/svg">
<path fill-rule="evenodd" clip-rule="evenodd" d="M112.704 5.6176C102.266 7.97166 99.011 10.845 100.429 16.4536C100.764 17.7791 101.646 18.8643 102.39 18.8643C103.296 18.8643 103.96 20.7795 104.404 24.6755C104.768 27.8725 105.951 32.2113 107.033 34.3181C108.115 36.425 109 38.4107 109 38.7324C109 39.0531 107.373 39.899 105.385 40.6128C103.397 41.3267 100.08 43.4276 98.014 45.2803C94.363 48.5547 94.022 48.649 85.879 48.6143L77.5 48.5785L75.5 44.3946C74.117 41.5014 72.651 39.9814 70.75 39.4661C69.237 39.056 66.763 38.3759 65.25 37.954C63.209 37.3841 62.164 36.1678 61.195 33.2379C59.373 27.7226 55.375 23.8286 51.535 23.8286C48.462 23.8286 44.552 25.8173 42.343 28.5049C41.406 29.6447 40.092 27.9956 35.451 19.8562C27.132 5.26911 27.161 5.2979 22.069 6.81201C17.936 8.04216 10 14.1691 10 16.131C10 16.685 19.452 33.499 31.005 53.4962C50.275 86.8502 52.01 90.2428 52.005 94.5697L52 99.2857H44.079H36.159L35.484 96.2337C34.614 92.301 29.435 86.458 25.298 84.7414C14.151 80.1176 1.789 88.3812 1.674 100.535C1.614 106.782 3.689 111.099 8.505 114.746C12.631 117.871 19.192 118.897 24.315 117.218C28.91 115.713 34.703 109.315 35.555 104.806L36.223 101.271H44.111H52V109.776C52 123.529 45.859 122.121 105.835 122.121C144.763 122.121 157.898 121.826 158.8 120.93C160.52 119.222 160.52 51.5492 158.8 49.8414C158.14 49.1862 155.837 48.65 153.682 48.65C150.768 48.65 148.902 47.8984 146.399 45.7161C142.914 42.679 131.914 38.7214 126.954 38.7214C123.621 38.7214 123.271 38.2895 122.457 33.1664C121.915 29.7579 122.122 29.1692 124.17 28.2964C126.315 27.382 126.523 26.6275 126.786 18.7958C127.032 11.5052 126.784 9.92462 125.059 7.74629C122.476 4.48574 119.782 4.02208 112.704 5.6176ZM20.5 9.83228C16.981 11.4536 12 15.2712 12 16.3454C12 16.6532 34.779 56.3913 35.513 57.3643C35.627 57.5152 38.078 56.0627 40.96 54.1375C43.843 52.2114 46.804 50.6357 47.541 50.6357C48.279 50.6357 49.132 50.2336 49.438 49.7422C50.083 48.7066 26.999 8.73021 25.5 8.28541C24.95 8.12258 22.7 8.81857 20.5 9.83228ZM20.75 15.9652C18.325 17.3671 18.445 22.4714 20.934 23.7938C21.998 24.3588 23.316 24.8214 23.863 24.8214C25.506 24.8214 28 21.828 28 19.8572C28 17.7761 25.461 14.877 23.679 14.9227C23.03 14.9395 21.712 15.4082 20.75 15.9652ZM117.816 19.6089C117.416 23.0601 114.128 23.7333 111.54 20.8937C110.522 19.7777 108.802 18.8643 107.716 18.8643C105.917 18.8643 105.801 19.326 106.409 24.0768C107.33 31.281 108.808 35.4569 110.689 36.1738C114.193 37.5092 120.659 30.5899 119.669 26.5659C119.366 25.3338 119.766 23.4573 120.559 22.3979C122.633 19.6238 122.388 16.8786 120.066 16.8786C118.7 16.8786 118.04 17.6798 117.816 19.6089ZM29.332 33.3382C28.999 34.199 29.463 35.6356 30.363 36.5292C31.879 38.0334 32.121 38.0334 33.637 36.5292C35.681 34.4988 34.743 31.7714 32 31.7714C30.865 31.7714 29.665 32.4764 29.332 33.3382ZM118.089 35.1392C117.454 35.8997 115.599 37.0713 113.967 37.7425C111.649 38.6956 111 39.5882 111 41.8202C111 43.3928 110.55 44.6786 110 44.6786C109.45 44.6786 109 44.0084 109 43.1893C109 42.3702 108.761 41.7 108.468 41.7C106.766 41.7 101.219 44.7183 99.595 46.5273L97.69 48.65H121.967C142.583 48.65 146.071 48.4415 145.091 47.2699C143.263 45.0827 134.917 41.8887 128.991 41.1083L123.563 40.3934L125.305 43.0324C126.705 45.1542 126.769 45.6714 125.632 45.6714C124.117 45.6714 121 38.9756 121 35.723C121 33.4285 119.732 33.1743 118.089 35.1392ZM54.657 51.3764C54.148 52.1945 71.101 82.3089 72.104 82.3704C72.437 82.3903 72.727 78.4983 72.75 73.7197C72.772 68.942 72.838 64.2508 72.895 63.2947C72.993 61.6703 75.63 61.5572 113.393 61.5572C149.304 61.5572 153.853 61.7319 154.393 63.1279C155.185 65.1761 155.185 106.588 154.393 108.636C153.855 110.029 149.646 110.207 117.276 110.207H80.767L81.37 112.441C81.701 113.669 81.979 115.909 81.986 117.417L82 120.16L119.75 119.899L157.5 119.639V85.3857V51.1322L106.315 50.875C78.163 50.733 54.917 50.9594 54.657 51.3764ZM45.359 53.6649C43.082 54.7839 40.382 56.6306 39.359 57.7674C37.522 59.8107 37.529 59.8266 40 59.0939C43.179 58.1507 48.407 55.0232 50.01 53.106C51.702 51.0815 50.264 51.2543 45.359 53.6649ZM49 56.6663C47.075 58.3006 43.822 60.1374 41.771 60.748L38.043 61.859L40.148 65.5772L42.253 69.2955L46.774 65.8681C49.261 63.9837 52.562 62.1906 54.109 61.8828L56.921 61.3248L54.94 57.4696C53.851 55.3488 52.856 53.6322 52.73 53.655C52.603 53.6769 50.925 55.0321 49 56.6663ZM69.5 54.6072C69.109 55.2356 71.656 55.6 76.441 55.6C80.814 55.6 84 55.181 84 54.6072C84 54.0402 81.02 53.6143 77.059 53.6143C73.241 53.6143 69.84 54.0611 69.5 54.6072ZM94 54.6072C94 55.2476 104.853 55.6 124.559 55.6C144.677 55.6 154.907 55.2605 154.5 54.6072C153.654 53.2479 94 53.2479 94 54.6072ZM51.325 65.1434C47.272 67.1271 44.016 70.4929 46.149 70.4929C47.673 70.4929 57 64.9646 57 64.0611C57 63.104 54.525 63.5756 51.325 65.1434ZM75 66.0369V68.53L113.75 68.2709L152.5 68.0107L152.82 65.7768L153.139 63.5429H114.07H75V66.0369ZM53.637 69.1058C50.962 70.9605 47.925 72.4786 46.887 72.4786C45.849 72.4786 45 72.7606 45 73.1041C45 74.1079 63.042 105.152 63.948 105.708C65.411 106.605 71.957 103.787 74.971 100.963C77.046 99.0187 77.7 97.6872 77.203 96.4203C75.957 93.2432 59.612 65.5246 59.047 65.6308C58.746 65.6874 56.312 67.2512 53.637 69.1058ZM75 79.3273C75 86.9197 75.35 88.7694 77.488 92.4827C78.856 94.8596 79.987 98.3673 80.002 100.279C80.016 102.19 80.299 104.759 80.63 105.988L81.233 108.221H117.117H153V89.3572V70.4929H114H75V79.3273ZM82.425 74.7959C82.144 75.5237 82.046 79.8803 82.207 84.4763L82.5 92.8322L92.25 93.1161L102 93.4001V83.4358V73.4714H92.469C85.447 73.4714 82.802 73.8199 82.425 74.7959ZM110.5 75.4572C110.858 76.033 116.344 76.45 123.559 76.45C131.186 76.45 136 76.0658 136 75.4572C136 74.8456 130.98 74.4643 122.941 74.4643C114.49 74.4643 110.1 74.8148 110.5 75.4572ZM88.769 78.6651L92 81.873L95.231 78.6651L98.462 75.4572H92H85.538L88.769 78.6651ZM84 83.4V89.8159L87.231 86.6079L90.462 83.4L87.231 80.1921L84 76.9842V83.4ZM96.479 80.4433L93.583 83.4447L96.792 86.6298L100 89.8159V83.6294C100 80.2268 99.859 77.4429 99.687 77.4429C99.515 77.4429 98.071 78.7932 96.479 80.4433ZM110.5 80.4214C110.1 81.0638 114.509 81.4143 123 81.4143C131.491 81.4143 135.9 81.0638 135.5 80.4214C135.144 79.8496 129.843 79.4286 123 79.4286C116.157 79.4286 110.856 79.8496 110.5 80.4214ZM110.5 85.3857C110.1 86.0281 114.509 86.3786 123 86.3786C131.491 86.3786 135.9 86.0281 135.5 85.3857C135.144 84.8138 129.843 84.3929 123 84.3929C116.157 84.3929 110.856 84.8138 110.5 85.3857ZM12.02 87.1252C7.887 89.1864 4.492 93.8905 3.553 98.8558C2.658 103.595 6.218 110.843 11 114.018C13.831 115.897 15.477 116.264 19.615 115.934C31.123 115.018 37.504 103.263 31.882 93.3326C27.882 86.2654 19.189 83.5489 12.02 87.1252ZM88.5 88.3643L85.626 91.3429H91.813C95.216 91.3429 98 90.9735 98 90.5228C98 89.3989 93.604 85.3857 92.373 85.3857C91.823 85.3857 90.081 86.7261 88.5 88.3643ZM110.5 90.35C110.1 90.9924 114.509 91.3429 123 91.3429C131.491 91.3429 135.9 90.9924 135.5 90.35C135.144 89.7781 129.843 89.3572 123 89.3572C116.157 89.3572 110.856 89.7781 110.5 90.35ZM15.2 91.5414C13.299 93.4289 13.742 98.0864 15.934 99.251C18.988 100.873 20.826 100.471 22.592 97.7964C24.109 95.497 24.109 95.1316 22.592 92.8322C20.837 90.1723 17.216 89.5398 15.2 91.5414ZM16.39 93.7515C15.48 96.1056 16.767 98.4825 18.747 98.1042C21.125 97.6495 21.125 92.9791 18.747 92.5244C17.783 92.3397 16.722 92.8917 16.39 93.7515ZM54 106.598C54 116.081 54.325 119.329 55.311 119.705C56.032 119.98 61.746 120.077 68.007 119.922L79.392 119.639L70.446 112.863C63.826 107.849 60.627 104.622 58.144 100.452C56.299 97.3536 54.611 94.6322 54.394 94.4038C54.177 94.1765 54 99.664 54 106.598ZM15 103.549C12.182 104.964 9.528 109.638 10.581 111.329C10.996 111.997 11.801 111.2 12.589 109.34C14.419 105.018 18.13 103.456 21.443 105.611C22.832 106.515 24.248 108.361 24.591 109.717C25.241 112.289 27 112.187 27 109.576C27 107.464 21.53 102.261 19.327 102.279C18.322 102.287 16.375 102.859 15 103.549Z" fill="#6E508C"/>
</svg>
