<svg width="10" height="16" viewBox="0 0 10 16" fill="none" xmlns="http://www.w3.org/2000/svg">
<path fill-rule="evenodd" clip-rule="evenodd" d="M2.65725 4.3447C1.25221 8.37147 1.1417 8.87648 1.14515 11.2451C1.14832 13.3533 1.04845 13.9473 0.574447 14.6376C0.258444 15.0978 0 15.5699 0 15.6864C0 15.8032 0.971321 15.9213 2.15849 15.9494L4.31698 16V14.7089C4.31698 13.5018 4.36389 13.4175 5.03648 13.4175C5.70906 13.4175 5.75597 13.5018 5.75597 14.7086V16L7.77344 15.8988C8.88319 15.8431 9.87207 15.7255 9.97107 15.6379C10.0701 15.5499 9.90661 15.1582 9.60816 14.7671C9.1802 14.2067 9.02681 13.3812 8.88204 10.8618C8.71368 7.93291 8.57842 7.34817 7.25627 3.83356L5.8144 0L5.78504 5.44877L5.75597 10.8973L5.10843 10.8157C4.46577 10.7345 4.45973 10.6941 4.31698 5.36698L4.17308 0L2.65725 4.3447Z" fill="#6E508C"/>
</svg>
