<svg width="199" height="67" viewBox="0 0 199 67" fill="none" xmlns="http://www.w3.org/2000/svg">
<path fill-rule="evenodd" clip-rule="evenodd" d="M40 2.18503C30.111 7.27203 28.198 19.198 36.016 27.016C42.238 33.238 50.946 33.62 57.398 27.955C61.797 24.093 63.38 20.065 62.738 14.369C61.456 2.99304 50.179 -3.04997 40 2.18503ZM76.5 1.41704C70.925 3.90604 67.716 8.37403 67.222 14.34C66.628 21.5 68.904 26.274 74.468 29.534C79.444 32.45 84.012 32.633 89.5 30.137C93.2 28.453 96.809 25.355 95.893 24.649C95.677 24.483 93.795 23.322 91.711 22.068C88.392 20.071 87.557 19.941 84.967 21.014C79.764 23.169 75.575 18.878 77.636 13.505C78.662 10.834 82.89 9.69804 85.484 11.397C87.504 12.721 88.071 12.601 91.955 10.03L96.212 7.21203L94.018 5.01803C89.357 0.357034 82.18 -1.11796 76.5 1.41704ZM101.75 1.75704C100.182 2.10604 100 3.64903 100 16.573V31H105.443H110.885L111.193 26.828C111.362 24.533 111.992 22.494 112.594 22.296C113.196 22.099 114.77 23.976 116.093 26.469L118.497 31H124.248C127.412 31 130 30.721 130 30.381C130 29.839 125.058 21.323 121.348 15.474C120.204 13.67 120.55 12.846 124.493 7.97403C126.93 4.96303 128.941 2.21503 128.962 1.86803C128.983 1.52003 126.534 1.31404 123.52 1.41004C118.325 1.57504 117.87 1.80603 114.77 5.85403L111.5 10.125L111 5.81203C110.519 1.66203 110.368 1.49703 107 1.43303C105.075 1.39603 102.713 1.54204 101.75 1.75704ZM144.25 1.78804L135 2.07503L134.85 11.538C134.767 16.742 134.7 22.125 134.7 23.5C134.7 24.875 134.767 27.125 134.85 28.5L135 31H147H159V26.5V22H152C148 22 145 21.571 145 21C145 20.45 147.25 20 150 20H155V16V12H150C147.25 12 145 11.55 145 11C145 10.429 148 10 152 10H159L158.998 5.75004C158.995 0.903036 160.418 1.28504 144.25 1.78804ZM0 16.5V31H5.5H11V27C11 24.8 11.441 23 11.98 23C12.518 23 13.878 24.8 15 27C16.968 30.858 17.217 31 22.02 31C24.837 31 27 30.543 27 29.948C27 29.37 25.998 27.155 24.773 25.027C22.604 21.258 22.594 21.106 24.392 19.12C25.406 17.999 26.464 15.059 26.743 12.588C27.195 8.58003 26.921 7.76703 24.202 5.04803C21.189 2.03503 21.033 2.00004 10.577 2.00004H0V16.5ZM173.233 20.5C168.351 36.256 167.967 38.232 167.979 47.5C167.99 55.749 167.643 58.073 165.996 60.774C164.898 62.575 164 64.422 164 64.878C164 65.335 167.375 65.797 171.5 65.907L179 66.105V61.053C179 56.33 179.163 56 181.5 56C183.837 56 184 56.33 184 61.052V66.105L191.01 65.709C194.866 65.491 198.302 65.031 198.646 64.688C198.99 64.344 198.422 62.811 197.385 61.281C195.898 59.088 195.365 55.858 194.862 46C194.277 34.54 193.807 32.252 189.213 18.5L184.203 3.50004L184.101 24.82L184 46.139L181.75 45.82C179.517 45.502 179.496 45.344 179 24.5L178.5 3.50004L173.233 20.5ZM11 12.066C11 13.729 11.535 14.071 13.741 13.816C15.395 13.626 16.615 12.805 16.815 11.75C17.073 10.391 16.46 10 14.073 10C11.634 10 11 10.426 11 12.066ZM42.408 13.5C40.908 15.79 40.904 16.204 42.358 18.424C45.426 23.106 51.326 22.534 52.607 17.431C54.038 11.73 45.679 8.50804 42.408 13.5ZM138.405 36.904C130.215 40.623 127.07 51.523 131.921 59.373C134.276 63.183 140.996 67 145.348 67C149.05 67 154.271 64.698 156.851 61.929L158.985 59.638L154.793 56.863C152.39 55.272 150.152 54.434 149.55 54.899C147.421 56.545 144.073 56.739 142.065 55.333C139.029 53.206 139.322 48.49 142.625 46.326C144.997 44.772 145.503 44.752 147.878 46.115C150.33 47.523 150.782 47.448 154.65 45.004C158.095 42.826 158.626 42.082 157.794 40.597C156.496 38.278 149.337 35.044 145.5 35.044C143.85 35.044 140.657 35.881 138.405 36.904ZM69 40.972V46H72.964H76.928L77.214 55.75L77.5 65.5L82.75 65.802L88 66.105V56.052V46H92.555H97.11L96.805 41.25L96.5 36.5L82.75 36.222L69 35.944V40.972ZM101.504 37.25C101.265 37.938 101.167 44.575 101.285 52L101.5 65.5H113.5H125.5L125.807 61.25L126.115 57H119.057C115.019 57 112 56.572 112 56C112 55.45 114.25 55 117 55H122V51V47H117C114.25 47 112 46.55 112 46C112 45.429 115 45 119 45H126V40.5V36H113.969C105.241 36 101.818 36.343 101.504 37.25Z" fill="#6E508C"/>
</svg>
