<svg width="199" height="67" viewBox="0 0 199 67" fill="none" xmlns="http://www.w3.org/2000/svg">
<path fill-rule="evenodd" clip-rule="evenodd" d="M40 1.99729C30.111 7.08429 28.198 19.0103 36.016 26.8283C42.238 33.0503 50.946 33.4323 57.398 27.7673C61.797 23.9053 63.38 19.8773 62.738 14.1813C61.456 2.80529 50.179 -3.23771 40 1.99729ZM76.5 1.22929C70.925 3.71829 67.716 8.18629 67.222 14.1523C66.628 21.3123 68.904 26.0863 74.468 29.3463C79.444 32.2623 84.012 32.4453 89.5 29.9493C93.2 28.2653 96.809 25.1673 95.893 24.4613C95.677 24.2953 93.795 23.1343 91.711 21.8803C88.392 19.8833 87.557 19.7533 84.967 20.8263C79.764 22.9813 75.575 18.6903 77.636 13.3173C78.662 10.6463 82.89 9.5103 85.484 11.2093C87.504 12.5333 88.071 12.4133 91.955 9.84229L96.212 7.02429L94.018 4.83029C89.357 0.16929 82.18 -1.30571 76.5 1.22929ZM101.75 1.5693C100.182 1.9183 100 3.46129 100 16.3853V30.8123H105.443H110.885L111.193 26.6403C111.362 24.3453 111.992 22.3063 112.594 22.1083C113.196 21.9113 114.77 23.7883 116.093 26.2813L118.497 30.8123H124.248C127.412 30.8123 130 30.5333 130 30.1933C130 29.6513 125.058 21.1353 121.348 15.2863C120.204 13.4823 120.55 12.6583 124.493 7.78629C126.93 4.77529 128.941 2.02729 128.962 1.68029C128.983 1.33229 126.534 1.1263 123.52 1.2223C118.325 1.3873 117.87 1.61829 114.77 5.66629L111.5 9.93729L111 5.62429C110.519 1.47429 110.368 1.30929 107 1.24529C105.075 1.20829 102.713 1.3543 101.75 1.5693ZM144.25 1.60029L135 1.88729L134.85 11.3503C134.767 16.5543 134.7 21.9373 134.7 23.3123C134.7 24.6873 134.767 26.9373 134.85 28.3123L135 30.8123H147H159V26.3123V21.8123H152C148 21.8123 145 21.3833 145 20.8123C145 20.2623 147.25 19.8123 150 19.8123H155V15.8123V11.8123H150C147.25 11.8123 145 11.3623 145 10.8123C145 10.2413 148 9.81229 152 9.81229H159L158.998 5.56229C158.995 0.715292 160.418 1.09729 144.25 1.60029ZM0 16.3123V30.8123H5.5H11V26.8123C11 24.6123 11.441 22.8123 11.98 22.8123C12.518 22.8123 13.878 24.6123 15 26.8123C16.968 30.6703 17.217 30.8123 22.02 30.8123C24.837 30.8123 27 30.3553 27 29.7603C27 29.1823 25.998 26.9673 24.773 24.8393C22.604 21.0703 22.594 20.9183 24.392 18.9323C25.406 17.8113 26.464 14.8713 26.743 12.4003C27.195 8.39229 26.921 7.57929 24.202 4.86029C21.189 1.84729 21.033 1.81229 10.577 1.81229H0V16.3123ZM173.233 20.3123C168.351 36.0683 167.967 38.0443 167.979 47.3123C167.99 55.5613 167.643 57.8853 165.996 60.5863C164.898 62.3873 164 64.2343 164 64.6903C164 65.1473 167.375 65.6093 171.5 65.7193L179 65.9173V60.8653C179 56.1423 179.163 55.8123 181.5 55.8123C183.837 55.8123 184 56.1423 184 60.8643V65.9173L191.01 65.5213C194.866 65.3033 198.302 64.8433 198.646 64.5003C198.99 64.1563 198.422 62.6233 197.385 61.0933C195.898 58.9003 195.365 55.6703 194.862 45.8123C194.277 34.3523 193.807 32.0643 189.213 18.3123L184.203 3.31229L184.101 24.6323L184 45.9513L181.75 45.6323C179.517 45.3143 179.496 45.1563 179 24.3123L178.5 3.31229L173.233 20.3123ZM11 11.8783C11 13.5413 11.535 13.8833 13.741 13.6283C15.395 13.4383 16.615 12.6173 16.815 11.5623C17.073 10.2033 16.46 9.81229 14.073 9.81229C11.634 9.81229 11 10.2383 11 11.8783ZM42.408 13.3123C40.908 15.6023 40.904 16.0163 42.358 18.2363C45.426 22.9183 51.326 22.3463 52.607 17.2433C54.038 11.5423 45.679 8.32029 42.408 13.3123ZM138.405 36.7163C130.215 40.4353 127.07 51.3353 131.921 59.1853C134.276 62.9953 140.996 66.8123 145.348 66.8123C149.05 66.8123 154.271 64.5103 156.851 61.7413L158.985 59.4503L154.793 56.6753C152.39 55.0843 150.152 54.2463 149.55 54.7113C147.421 56.3573 144.073 56.5513 142.065 55.1453C139.029 53.0183 139.322 48.3023 142.625 46.1383C144.997 44.5843 145.503 44.5643 147.878 45.9273C150.33 47.3353 150.782 47.2603 154.65 44.8163C158.095 42.6383 158.626 41.8943 157.794 40.4093C156.496 38.0903 149.337 34.8563 145.5 34.8563C143.85 34.8563 140.657 35.6933 138.405 36.7163ZM69 40.7843V45.8123H72.964H76.928L77.214 55.5623L77.5 65.3123L82.75 65.6143L88 65.9173V55.8643V45.8123H92.555H97.11L96.805 41.0623L96.5 36.3123L82.75 36.0343L69 35.7563V40.7843ZM101.504 37.0623C101.265 37.7503 101.167 44.3873 101.285 51.8123L101.5 65.3123H113.5H125.5L125.807 61.0623L126.115 56.8123H119.057C115.019 56.8123 112 56.3843 112 55.8123C112 55.2623 114.25 54.8123 117 54.8123H122V50.8123V46.8123H117C114.25 46.8123 112 46.3623 112 45.8123C112 45.2413 115 44.8123 119 44.8123H126V40.3123V35.8123H113.969C105.241 35.8123 101.818 36.1553 101.504 37.0623Z" fill="white"/>
</svg>
