<svg width="200" height="200" viewBox="0 0 200 200" fill="none" xmlns="http://www.w3.org/2000/svg">
<g clip-path="url(#clip0_2_21)">
<path fill-rule="evenodd" clip-rule="evenodd" d="M0 100.005V200.01L100.25 199.755L200.5 199.5L200.755 99.75L201.01 0H100.505H0V100.005ZM0.481 100.5C0.481 155.5 0.602 178.147 0.75 150.826C0.898 123.506 0.898 78.506 0.75 50.826C0.602 23.147 0.481 45.5 0.481 100.5ZM60.378 78.437C52.09 82.044 51.671 93.785 59.684 97.883C64.536 100.364 71.21 98.429 73.575 93.855C76.797 87.624 74.572 80.972 68.401 78.394C64.395 76.72 64.322 76.721 60.378 78.437ZM84 78.727C79.067 81.226 76.446 86.79 77.993 91.478C80.35 98.62 88.727 101.363 94.444 96.865C96.944 94.899 97.031 94.602 95.543 93.115C94.567 92.14 92.258 91.5 89.713 91.5C85.699 91.5 85.5 91.359 85.5 88.5C85.5 85.744 85.785 85.497 89 85.468C92.704 85.435 97 83.566 97 81.988C97 80.741 93.129 78.284 90 77.545C88.508 77.192 86.088 77.669 84 78.727ZM33 87.866V98H36.5C39.567 98 40 97.69 40 95.5C40 94.125 40.378 93 40.839 93C41.301 93 42.192 94.125 42.818 95.5C43.719 97.478 44.693 98 47.479 98C51.425 98 51.702 97.447 49.4 94.161C47.934 92.068 47.934 91.73 49.4 90.11C51.616 87.662 51.422 82.692 49.026 80.523C47.679 79.304 44.819 78.577 40.026 78.234L33 77.731V87.866ZM100 88V98H103.5C106.161 98 107.004 97.58 107.015 96.25C107.024 95.287 107.428 93.872 107.914 93.104C108.596 92.028 109.171 92.429 110.425 94.854C111.842 97.595 112.572 98 116.093 98H120.135L116.893 92.102L113.651 86.204L116.325 83.025C119.8 78.896 119.698 78.002 115.75 77.991C113.299 77.984 111.831 78.783 109.777 81.241L107.054 84.5L107.027 81.25C107.002 78.208 106.777 78 103.5 78H100V88ZM123.705 78.628C123.317 79.016 123 83.533 123 88.667V98H131.5H140V95C140 92.11 139.826 91.994 135.25 91.84C131.599 91.717 131.252 91.587 133.75 91.277C136.417 90.946 137 90.436 137 88.437C137 86.396 136.513 86 134 86C132.35 86 131 85.55 131 85C131 84.45 133.055 84 135.566 84C139.958 84 140.121 83.895 139.816 81.25C139.506 78.551 139.361 78.495 131.955 78.212C127.805 78.053 124.093 78.241 123.705 78.628ZM149.239 90.832C146.911 98.451 145.972 103.501 145.954 108.5C145.939 112.692 145.356 116.503 144.5 118C142.358 121.748 142.579 122 148 122C152.889 122 153 121.933 153 119C153 117 153.5 116 154.5 116C155.5 116 156 117 156 119C156 121.971 156.053 122 161.526 122H167.051L165.526 119.05C164.602 117.263 164 113.446 164 109.372C164 104.321 163.065 99.759 160.25 91.072L156.5 79.5L156.223 93.75C155.996 105.381 155.68 108 154.5 108C153.322 108 153.004 105.424 152.777 94.082L152.5 80.164L149.239 90.832ZM40.25 85.25C40.88 87.142 44 87.411 44 85.573C44 84.646 43.145 84 41.917 84C40.695 84 40.005 84.517 40.25 85.25ZM61.309 86.636C60.482 88.792 62.259 91.5 64.5 91.5C66.741 91.5 68.518 88.792 67.691 86.636C66.87 84.497 62.13 84.497 61.309 86.636ZM124.826 102.712C121.626 104.697 120 107.936 120 112.325C120 120.728 130.913 125.717 137.25 120.211C139.573 118.192 139.465 117.535 136.49 115.585C134.721 114.426 133.458 114.22 132.214 114.885C128.275 116.993 125.115 111.809 128.584 108.93C129.75 107.963 130.607 107.9 131.834 108.692C133.08 109.497 134.193 109.365 136.25 108.169C139.755 106.129 139.719 104.856 136.096 102.716C132.456 100.565 128.288 100.564 124.826 102.712ZM79 105.5C79 108.722 79.238 109 82 109H85V115.5V122H88.5H92V115.5V109H95C97.762 109 98 108.722 98 105.5V102H88.5H79V105.5ZM101 112V122H109H117V119C117 116.105 116.84 116 112.441 116C109.656 116 108.122 115.611 108.5 115C108.84 114.45 110.441 114 112.059 114C114.51 114 115 113.594 115 111.56C115 109.478 114.451 109.063 111.25 108.728C107.814 108.369 107.898 108.322 112.25 108.168C116.824 108.006 117 107.889 117 105V102H109H101V112Z" fill="#6E508C"/>
</g>
<defs>
<clipPath id="clip0_2_21">
<rect width="200" height="200" fill="white"/>
</clipPath>
</defs>
</svg>
