<svg width="455" height="625" viewBox="0 0 455 625" fill="none" xmlns="http://www.w3.org/2000/svg">
<path fill-rule="evenodd" clip-rule="evenodd" d="M150.695 57.638C150.313 58.021 150 63.525 150 69.87V81.406L153.75 77.744C157.474 74.107 157.567 74.08 167 73.791L176.5 73.5V65.5V57.5L163.945 57.222C157.04 57.068 151.077 57.256 150.695 57.638ZM242.81 64.75C241.13 66.71 228.553 93.18 226.393 99.303C225.605 101.536 225 107.09 225 112.087C225 122.547 226.133 124.215 234.511 126.09C241.986 127.763 256.528 126.881 261.5 124.453L265.5 122.5L265.784 111.738L266.068 100.976L257.925 83.238C253.446 73.482 249.326 64.938 248.768 64.25C247.327 62.472 244.564 62.704 242.81 64.75ZM155.543 64.931C154.803 66.128 156.684 67.313 158.016 66.49C159.135 65.799 158.4 64 157 64C156.515 64 155.859 64.419 155.543 64.931ZM162 65.5C162 66.325 162.675 67 163.5 67C164.325 67 165 66.325 165 65.5C165 64.675 164.325 64 163.5 64C162.675 64 162 64.675 162 65.5ZM168.543 64.931C167.803 66.128 169.684 67.313 171.016 66.49C172.135 65.799 171.4 64 170 64C169.515 64 168.859 64.419 168.543 64.931ZM364.088 73.519C354.707 79.874 354.684 79.899 357.338 81.108C360.543 82.568 360.689 83.561 357.917 85.045C356.278 85.922 355.461 85.823 354.088 84.58C352.085 82.767 345.824 82.489 342.85 84.08C340.111 85.546 337.89 91.198 338.619 94.845C339.11 97.301 338.754 98.115 336.561 99.552C334.249 101.067 333.414 101.127 330.058 100.019C326.215 98.751 326.188 98.762 317.05 105.02C312.013 108.47 308.254 111.637 308.696 112.058C309.138 112.48 312.398 113.992 315.94 115.419L322.379 118.014L331.69 111.875C336.81 108.498 341 105.354 341 104.887C341 104.42 339.875 103.756 338.5 103.411C335.467 102.65 335.356 101.883 338.036 100.209C339.72 99.158 340.452 99.203 342.259 100.469C343.461 101.311 346.33 102 348.634 102C352.119 102 353.275 101.462 355.518 98.796C357.739 96.157 358.133 94.874 357.755 91.523C357.367 88.078 357.674 87.17 359.754 85.601C361.904 83.979 362.711 83.897 366.198 84.941C370.138 86.122 370.289 86.067 379.077 80.318C383.967 77.118 387.976 74.138 387.984 73.695C388 72.911 379.503 68.835 375.5 67.707C374.105 67.314 370.652 69.073 364.088 73.519ZM365.712 74.169C360.961 77.313 358.283 79.683 358.845 80.245C359.766 81.166 375.932 71.263 375.977 69.75C376.029 68.028 373.058 69.307 365.712 74.169ZM370.201 75.824C363.562 80.258 362.225 81.546 363.514 82.268C364.706 82.935 367.194 81.812 373.063 77.959C377.428 75.093 381 72.403 381 71.981C381 69.671 377.609 70.877 370.201 75.824ZM235.184 83.013C229.584 94.854 227.787 99.014 228.281 98.989C228.402 98.983 230.709 98.308 233.409 97.489C239.528 95.633 250.905 95.57 257.782 97.354C260.652 98.098 263 98.519 263 98.289C263 98.059 262.045 95.65 260.877 92.935C259.579 89.919 258.121 87.999 257.127 87.996C256.232 87.994 254.049 87.108 252.276 86.027C249.468 84.315 249.081 83.575 249.276 80.286C249.477 76.898 249.15 76.336 246.088 74.802C244.211 73.862 242.319 72.516 241.883 71.81C241.366 70.975 239.027 74.887 235.184 83.013ZM374.7 78.434C369.468 81.997 367.386 83.934 368.377 84.314C369.223 84.639 372.988 82.709 377.177 79.804C386.409 73.402 386.859 72.986 384.45 73.06C383.377 73.093 378.99 75.511 374.7 78.434ZM342.455 86.455C337.163 91.746 340.86 101 348.266 101C353.772 101 357.908 95.753 356.578 90.456C354.992 84.134 347.03 81.879 342.455 86.455ZM105.5 91.417C103.85 92.154 101.226 94.111 99.67 95.767C94.821 100.923 94.755 111.1 99.537 116.256L102.073 118.991L94.111 118.746C86.559 118.513 85.994 118.647 83.155 121.36C81.509 122.932 79.892 125.295 79.562 126.609C78.84 129.486 84.375 155.398 86.359 158.425C88.169 161.188 94.333 175.982 94.333 177.564C94.333 178.231 93.292 183.466 92.02 189.199C89.063 202.518 89.527 205.151 96.02 211.924C100.805 216.915 101 217.34 100.992 222.809C100.973 235.978 97.411 261.182 94.772 266.825C93.64 269.245 93.135 271.502 93.625 271.95C94.49 272.742 109.811 278 111.253 278C113.174 278 111.649 274.361 108.409 271.215C105.828 268.708 104.965 267.133 105.34 265.614C107.077 258.564 108.135 255.64 111.712 248L115.692 239.5L119.977 248.5C126.071 261.301 126.775 262.991 127.991 267.75C128.588 270.087 129.418 272 129.834 272C131.752 272 147.167 266.339 147.323 265.577C147.558 264.438 145.358 263.381 140.598 262.347C136.609 261.481 135.874 260.738 133.826 255.5C132.91 253.157 120.839 169.741 121.37 169.422C121.442 169.379 126.106 169.674 131.736 170.077C141.128 170.749 142.293 171.064 145.879 173.905C150.634 177.67 152.91 177.789 156.058 174.439C158.06 172.307 159.222 171.924 162.982 172.158L167.5 172.438L169.691 166.469C170.895 163.186 171.908 159.055 171.941 157.289C171.994 154.4 171.623 153.979 168.25 153.105C164.973 152.255 153.897 151.565 148.729 151.889C147.754 151.95 146.453 153.106 145.837 154.458C144.809 156.715 144.547 156.796 142.636 155.458C141.492 154.656 139.596 154 138.424 154C136.412 154 136.255 153.354 135.597 142.355C134.674 126.918 132.72 123.362 123.841 120.961L120.182 119.972L123.01 117.144C135.078 105.075 121.057 84.474 105.5 91.417ZM107.968 91.941C101.495 93.908 97 99.699 97 106.074C97 112.138 103.992 121.133 106.147 117.842C106.63 117.104 106.815 115.825 106.557 115C103.517 105.287 103.499 105.057 105.624 102.932C109.085 99.47 121 100.393 121 104.122C121 104.605 120.17 105.83 119.156 106.844C118.142 107.858 117.035 110.22 116.695 112.094C116.356 113.967 115.783 116.513 115.422 117.75C114.587 120.617 116.24 120.678 120.111 117.921C124 115.152 126.001 111.031 125.996 105.8C125.991 100.014 122.988 95.351 117.729 92.964C113.168 90.893 111.866 90.757 107.968 91.941ZM238.5 97.679C232.918 98.385 227 101.07 227 102.897C227 109.762 258.575 111.037 264.087 104.395C267.754 99.977 252.335 95.929 238.5 97.679ZM318.565 105.784C314.201 108.86 311.151 111.55 311.786 111.762C313.069 112.19 328 102.11 328 100.816C328 99.373 326.653 100.082 318.565 105.784ZM322.75 107.144C318.488 109.965 315 112.661 315 113.136C315 115.12 318.52 113.687 326.078 108.627C331.977 104.678 333.67 103.088 332.47 102.627C331.571 102.282 330.761 102.003 330.668 102.007C330.576 102.011 327.012 104.323 322.75 107.144ZM327.721 109.25C323.501 112.138 320.038 114.838 320.025 115.25C319.963 117.133 323.685 115.576 331.078 110.627C336.977 106.678 338.67 105.088 337.47 104.627C336.571 104.282 335.737 104 335.615 104C335.492 104 331.94 106.362 327.721 109.25ZM227 113.994V121.835L231.75 123.667C238.674 126.339 254.989 126.24 260.5 123.493L264.5 121.5L264.793 113.702L265.086 105.904L261.793 107.702C257.16 110.232 235.09 110.319 230.25 107.827L227 106.153V113.994ZM110.68 111.037C107.846 113.267 108.03 115.411 111.203 117.109C113.686 118.437 114.084 118.01 114.993 113.04C115.849 108.357 114.741 107.842 110.68 111.037ZM107.546 117.925C107.23 118.437 107.911 119.154 109.061 119.519C111.899 120.42 112.652 119.419 110.146 118.078C108.928 117.426 107.892 117.365 107.546 117.925ZM83.687 122.805C80.237 126.406 80.258 129.165 83.857 144.782C86.911 158.038 89.149 161.811 95.591 164.57C100.068 166.488 139.681 169.719 141.116 168.284C142.57 166.83 141.383 165 138.986 165C137.944 165 135.966 163.875 134.591 162.5C132.663 160.572 131.058 160 127.58 160C123.88 160 122.496 159.44 119.885 156.888C116.86 153.931 116.418 153.807 111.024 154.418C106.173 154.967 104.957 154.754 102.673 152.957C100.379 151.153 100 150.107 100 145.577C100 141.301 99.431 139.515 97 136.159C93.7 131.603 93.157 130.055 95.558 132.048C98.95 134.863 102.189 141.862 101.517 144.922C100.233 150.767 104.612 154.498 110.762 152.8C114.68 151.718 117.378 152.416 119.95 155.176C121.811 157.175 121.839 157.134 122.552 151.348C123.586 142.956 125.159 140.011 124.341 148C123.186 159.276 122.857 158.463 128.718 158.801C132.853 159.04 134.335 159.61 135.862 161.551C138.535 164.949 142.742 164.876 143.611 161.415C144.412 158.221 142.445 156.016 138.413 155.591C135.742 155.31 135.445 154.878 134.838 150.392C134.473 147.701 134.135 142.575 134.086 139C133.98 131.301 131.799 126.295 127.5 123.889C125.457 122.745 120.024 121.857 110.466 121.105C88.689 119.39 86.846 119.507 83.687 122.805ZM109 137.667C109 142.433 109.214 146.119 109.475 145.858C109.737 145.597 110.247 141.697 110.609 137.191C111.077 131.367 110.94 129 110.134 129C109.376 129 109 131.875 109 137.667ZM117.701 130.632C117.316 131.018 117 132.158 117 133.167C117 134.469 117.745 135 119.57 135C121.659 135 122.079 134.582 121.82 132.76C121.503 130.543 119.055 129.278 117.701 130.632ZM239.218 134.607C232.269 138.151 229.515 145.822 232.441 153.485L234.147 157.951L229.517 166.183C226.242 172.008 225.058 175.095 225.471 176.739C226.101 179.252 231.381 182.99 234.309 182.996C237.046 183.002 235.449 184.66 232.052 185.34C230.408 185.668 228.148 186.852 227.031 187.969C225.135 189.865 225 191.238 225 208.566C225 218.888 225.439 227.952 225.989 228.979C230.058 236.583 263.657 236.317 265.536 228.667C265.829 227.475 265.94 217.95 265.784 207.501L265.5 188.502L262 186.8C260.075 185.864 257.6 184.788 256.5 184.409C254.791 183.82 254.969 183.614 257.725 182.991C263.017 181.796 266 179.312 266 176.1C266 174.53 264.031 169.703 261.625 165.373C257.451 157.861 257.317 157.369 258.708 154.639C260.796 150.543 260.576 143.248 258.272 140.162C253.474 133.736 245.491 131.409 239.218 134.607ZM242.942 134.973C237.912 136.45 235.784 138.235 233.859 142.586C231.493 147.934 232.413 152.734 236.65 157.156C240.489 161.164 243 160.947 243 156.607C243 154.396 243.567 152.997 244.627 152.59C247.093 151.643 249 153.849 249 157.648V161.051L252.044 159.477C256.774 157.031 259.189 152.401 258.699 146.717C257.99 138.489 250.352 132.796 242.942 134.973ZM243.2 141.2C241.47 142.93 241.725 146.747 243.642 147.82C247.903 150.204 252.365 144.203 248.456 141.344C246.185 139.684 244.756 139.644 243.2 141.2ZM147.754 153.609C146.289 156.032 143.054 168.445 143.728 169.056C144.152 169.441 149.529 170.058 155.677 170.427L166.853 171.098L169.128 164.036C172.135 154.698 171.685 154.252 158.381 153.38C152.745 153.01 148.054 153.112 147.754 153.609ZM244 157.427C244 160.37 244.364 161 246.063 161C247.788 161 248.075 160.468 247.813 157.758C247.607 155.623 246.903 154.403 245.75 154.185C244.348 153.919 244 154.564 244 157.427ZM233.781 161.213C232.958 162.471 231.07 165.898 229.585 168.829C225.882 176.14 227.291 177.475 240.75 179.412L245 180.024V171.48C245 164.22 244.737 162.855 243.25 162.387C241.722 161.907 237.693 160.187 235.889 159.245C235.553 159.07 234.605 159.955 233.781 161.213ZM252.5 160.49C250.85 161.239 248.683 162.107 247.684 162.42C246.086 162.92 245.906 163.981 246.184 171.244L246.5 179.5L251.5 179.163C254.25 178.977 258.442 177.977 260.815 176.94L265.13 175.055L260.954 167.028C258.656 162.612 256.49 159.029 256.139 159.064C255.787 159.099 254.15 159.741 252.5 160.49ZM91 164.266C91 164.989 99.559 185.468 105.308 198.5C111.182 211.815 111.485 212.891 111.501 220.5C111.517 228.409 111.597 228.656 118.509 242.286C125.105 255.294 125.641 256.037 127.998 255.455C129.372 255.115 130.673 254.66 130.89 254.443C131.249 254.084 120.165 169.82 119.7 169.376C119.59 169.271 114.38 168.675 108.122 168.052C101.864 167.428 95.451 166.25 93.872 165.434C92.292 164.617 91 164.092 91 164.266ZM227 177.937C227 179.82 234.903 182.37 242.033 182.789C251.027 183.318 260.073 181.636 263.219 178.852C265.256 177.049 265.286 176.91 263.5 177.557C252.792 181.435 238.46 181.926 230.75 178.681C228.688 177.812 227 177.478 227 177.937ZM93.111 190.467C90.272 202.246 90.743 204.71 97.045 211.046C100.202 214.219 102.088 217.069 102.448 219.21C102.753 221.02 102.192 230.25 101.203 239.723L99.404 256.945L102.272 257.945C105.118 258.937 105.165 258.889 108.659 251.222C115.265 236.732 115.025 237.923 112.348 232.943C110.35 229.226 109.998 227.275 110.189 221C110.411 213.719 110.22 213.047 103.649 198C99.926 189.475 96.546 182.161 96.138 181.747C95.729 181.334 94.367 185.257 93.111 190.467ZM234.5 185.929C226.115 187.952 224.527 191.793 231.004 194.385C240.192 198.061 257.979 197.267 263.32 192.942C265.427 191.236 265.435 191.138 263.642 189.157C262.63 188.038 259.574 186.645 256.852 186.062C251.355 184.883 239.135 184.81 234.5 185.929ZM227 204.474C227 210.263 227.196 215 227.435 215C227.674 215 229.137 214.505 230.685 213.901C237.754 211.14 253.756 210.934 260.255 213.52C262.812 214.537 265 208.584 265 200.608V194.151L259.25 196.185C254.489 197.868 251.78 198.142 243.5 197.775C236.792 197.478 232.43 196.776 230.25 195.641L227 193.949V204.474ZM234.5 213.876C222.822 216.9 225.417 222.077 239.621 224.088C247.784 225.245 250.082 224.665 252.238 220.907C253.184 219.259 255.352 217.425 257.055 216.831C262.438 214.955 258.744 213.566 247.724 213.324C242.101 213.2 236.15 213.448 234.5 213.876ZM303.417 215.355C303.131 216.101 303.033 219.588 303.199 223.105L303.5 229.5L313.199 230C322.618 230.486 323.001 230.6 326.449 233.946L330 237.392V225.696V214H316.969C306.926 214 303.818 214.311 303.417 215.355ZM309.5 221C309.101 221.646 309.224 222.624 309.774 223.174C310.441 223.841 311.016 223.783 311.5 223C311.899 222.354 311.776 221.376 311.226 220.826C310.559 220.159 309.984 220.217 309.5 221ZM315.5 221C314.684 222.32 315.88 224.192 317.069 223.457C318.284 222.707 318.276 220 317.059 220C316.541 220 315.84 220.45 315.5 221ZM322.5 221C322.101 221.646 322.224 222.624 322.774 223.174C323.441 223.841 324.016 223.783 324.5 223C324.899 222.354 324.776 221.376 324.226 220.826C323.559 220.159 322.984 220.217 322.5 221ZM227 225.525C227 228.375 227.545 229.231 230.25 230.636C232.037 231.563 236.751 232.533 240.725 232.791C247.83 233.252 247.968 233.215 248.975 230.565C249.539 229.083 250 227.516 250 227.083C250 226.65 246.424 226.021 242.052 225.684C237.681 225.346 232.506 224.403 230.552 223.586L227 222.102V225.525ZM240 242.636C231.724 244.21 231.287 244.613 224.922 256.566C221.58 262.842 218.43 268.234 217.923 268.548C217.415 268.861 217 271.272 217 273.904C217 279.191 218.298 280.96 223.902 283.317C227.185 284.697 227.201 284.733 224.784 285.339C223.432 285.679 221.127 286.899 219.662 288.051L217 290.145V318.534C217 346.612 217.024 346.945 219.231 349C221.704 351.305 228.723 353.516 236.786 354.532C242.745 355.282 242.75 355.305 238.586 364C235.569 370.302 236.184 373.576 240.663 375.054C244.448 376.303 251.523 375.641 253.7 373.834C255.724 372.154 255.252 368.513 252.115 361.594L249.231 355.232L255.286 354.547C262.113 353.775 270.287 350.955 273.112 348.398C274.875 346.803 275 344.877 275 319.279C275 301.553 274.618 291.155 273.919 289.849C273.325 288.739 271.04 287.025 268.841 286.04L264.843 284.25L267.842 283.205C275.122 280.667 277.186 273.743 272.678 266.982C271.401 265.067 268.227 259.562 265.625 254.748C262.469 248.911 259.955 245.511 258.076 244.539C255.082 242.991 244.175 241.843 240 242.636ZM259.156 251.793C255.547 254.219 241.329 254.665 234.879 252.555C230.644 251.17 229.541 251.102 228.81 252.181C227.644 253.904 222 264.821 222 265.355C222 265.581 223.912 265.039 226.25 264.149C232.335 261.835 259.67 261.917 265.75 264.268C268.087 265.172 270 265.769 270 265.594C270 265.253 262.074 250.723 261.716 250.408C261.597 250.304 260.445 250.927 259.156 251.793ZM345.45 251.351C341.812 253.002 337.244 258.18 336.376 261.637C335.248 266.132 336.617 272.631 339.483 276.389L342.237 280H339.196C337.153 280 335.174 280.98 333.173 282.981C330.672 285.482 329.918 287.48 328.495 295.384C327.032 303.511 326.504 304.87 324.649 305.274C323.467 305.532 321.712 306.074 320.75 306.478C319.539 306.987 319 306.757 319 305.729C319 303.17 316.746 302.286 308.764 301.712C302.332 301.25 300.664 301.451 298.868 302.905C296.796 304.583 296.76 304.926 297.967 311.327L299.226 318H302.958C305.408 318 307.306 318.68 308.482 319.98C311.318 323.114 316.345 323.584 320.541 321.108C324.181 318.961 328.276 318.505 333.875 319.625C336.258 320.102 337 320.781 337 322.488C337 324.409 335.689 325.189 327.75 327.992C306.72 335.415 303.349 336.939 302.155 339.56C300.608 342.955 300.699 346.206 302.406 348.54C303.618 350.198 303.606 350.861 302.317 353.353C299.471 358.857 301.012 361.649 316.78 379.567C324.876 388.767 332.988 398.14 334.807 400.397C336.625 402.654 339.048 405.222 340.19 406.105C342.024 407.522 342.186 408.359 341.573 413.259C341.15 416.649 341.269 419.048 341.879 419.426C342.429 419.765 345.484 416.819 348.667 412.879L354.456 405.715L351.978 404.117C347.68 401.346 342.536 395.677 339.692 390.576L336.946 385.651L340.084 381.746L343.222 377.841L340.563 375.066C339.101 373.54 337.074 369.548 336.059 366.196L334.214 360.101L337.857 356.161C340.357 353.457 343.108 351.744 346.622 350.702C354.047 348.501 357.556 346.448 360.507 342.579C364.494 337.352 365.351 332.945 363.927 324.981C362.71 318.167 362.712 318.152 365.386 315.828C368.707 312.94 376.434 291.866 375.515 288.203C375.187 286.896 373.832 284.742 372.505 283.414C370.564 281.473 369.059 281 364.823 281H359.556L361.715 278.84C363.817 276.738 363.991 276.725 368.221 278.34C373.103 280.205 380.171 280.514 383.023 278.988C387.044 276.836 386.747 266.133 382.531 261.254L380.152 258.5L375.826 260.11C373.447 260.996 370.735 262.048 369.8 262.448C368.494 263.007 367.765 262.374 366.656 259.72C363.514 252.2 352.853 247.993 345.45 251.351ZM347.352 252.092C343.252 253.28 338.276 259.012 337.43 263.522C336.172 270.226 341.176 279 346.258 279C347.74 279 347.882 278.647 347.035 277.066C346.466 276.002 346 273.543 346 271.601C346 269.094 345.42 267.76 344 267C341.281 265.545 341.488 262.762 344.589 259.077C346.532 256.768 348.014 256 350.529 256C353.312 256 354.58 256.83 358.004 260.89C361.018 264.464 362.648 265.643 364.064 265.273C369.488 263.855 363.132 254.026 355.558 252.119C353.114 251.504 350.976 251.041 350.807 251.09C350.638 251.14 349.083 251.591 347.352 252.092ZM231.369 264.423C219.569 267.123 215.776 270.69 220.438 274.701C224.409 278.116 229.437 279.232 243.099 279.732C264.546 280.517 278.417 275.11 271.25 268.759C265.917 264.033 243.652 261.613 231.369 264.423ZM347 269.935C347 273.388 348.594 278 349.787 278C351.463 278 355 273.869 355 271.91C355 270.559 353.86 269.422 351.532 268.449C346.973 266.544 347 266.536 347 269.935ZM355.505 274.976C354.357 280.204 356.141 281.25 360.44 277.869L363.149 275.738L360.324 273.875C356.591 271.414 356.272 271.487 355.505 274.976ZM218.177 277.03C218.424 277.771 219.84 279.285 221.324 280.392C224.487 282.754 236.428 283.972 238.279 282.121C239.107 281.293 238.369 280.991 235.45 280.967C232.013 280.939 225.984 279.236 219.614 276.493C218.237 275.901 217.849 276.046 218.177 277.03ZM270.612 277.157C267.982 278.685 259.067 280.974 255.691 280.988C254.075 280.995 253.145 281.425 253.5 282C253.84 282.55 256.584 283 259.599 283C265.648 283 273 279.972 273 277.48C273 275.742 273.04 275.747 270.612 277.157ZM351 278.583L348.5 279.971L351.25 279.985C353.034 279.995 354 279.473 354 278.5C354 277.675 353.887 277.044 353.75 277.098C353.613 277.152 352.375 277.82 351 278.583ZM336.241 282.282C332.687 284.324 331.356 286.976 330.11 294.5C327.956 307.504 328.26 306.854 324.183 307.194C321.003 307.458 320.5 307.841 320.5 310C320.5 312.984 323.955 313.964 325.96 311.548C326.799 310.538 328.939 310 332.122 310H337L337.189 303.25L337.378 296.5L337.739 302.25C338.13 308.486 338.157 308.522 341.182 306.903C342.692 306.094 344.393 306.13 347.637 307.038C351.537 308.13 352.269 308.066 354.021 306.481C355.304 305.32 356 303.407 356 301.041C356 298.184 356.759 296.656 359.5 294C361.425 292.134 363 291.062 363 291.617C363 292.172 361.65 293.919 360 295.5C357.737 297.668 357 299.273 357 302.032C357 304.443 356.305 306.319 354.962 307.535C353.189 309.139 352.273 309.246 347.93 308.356C343.372 307.423 342.656 307.541 339.718 309.711C337.157 311.602 335.749 311.961 332.825 311.469C329.99 310.991 328.719 311.281 327.263 312.737C326.224 313.776 324.953 314.492 324.438 314.329C322.98 313.868 320.674 315.664 321.34 316.741C322.133 318.025 355.312 319.029 359.424 317.893C364.319 316.542 366.582 313.395 370.458 302.548C374.376 291.582 374.736 288.496 372.471 285.262C370.638 282.646 368.385 282.245 351.5 281.533C341.829 281.125 337.922 281.317 336.241 282.282ZM239 283.99C235.593 284.527 237.151 284.736 245.417 284.85C251.421 284.932 256.146 284.835 255.917 284.633C254.954 283.784 243.152 283.336 239 283.99ZM224.063 287.217C218.245 290.211 217.01 292.249 219.41 294.9C223.113 298.992 230.356 300.504 246 300.45C258.65 300.406 261.233 300.11 266.249 298.128C280.051 292.676 271.229 283.858 254.173 286.058C247.209 286.956 242.105 286.808 232 285.416C229.576 285.081 227.136 285.635 224.063 287.217ZM337.207 288.25C335.725 290.036 337.344 292.466 339.473 291.649C341.269 290.959 341.218 287.905 339.4 287.3C338.795 287.098 337.808 287.526 337.207 288.25ZM346.625 290.125C345.761 294.446 345.84 302 346.75 302C347.163 302 347.5 299.638 347.5 296.75C347.5 293.863 347.868 290.488 348.317 289.25C348.797 287.93 348.745 287 348.192 287C347.674 287 346.969 288.406 346.625 290.125ZM139.25 291.662C138.351 292.025 138 295.426 138 303.786V315.406L141.75 311.744C145.474 308.107 145.567 308.08 155 307.791L164.5 307.5L164.797 300.088C165.008 294.834 164.716 292.437 163.797 291.853C162.415 290.977 141.355 290.813 139.25 291.662ZM218 312.034C218 320.815 218.13 328 218.289 328C218.447 328 220.342 327.1 222.5 326C224.658 324.9 227.228 324 228.211 324C229.661 324 230 323.158 230 319.559C230 317.116 230.45 314.84 231 314.5C231.608 314.125 232 315.573 232 318.191V322.5L246.25 322.517C259.34 322.532 261.009 322.747 266.75 325.151L273 327.768V319.475V311.181L269.048 313.091C262.442 316.283 262 315.959 262 307.933C262 301.145 261.914 300.892 259.839 301.551C256.099 302.738 235.742 302.405 230 301.063C226.975 300.357 223.037 298.943 221.25 297.923L218 296.067V312.034ZM270.548 297.923C270.234 298.431 268.632 299.142 266.989 299.503C264.049 300.148 264 300.264 264 306.579C264 313.749 264.556 314.178 269.75 311.011C272.837 309.129 273 308.727 273 303.015C273 297.541 272.029 295.526 270.548 297.923ZM143.459 299.067C142.539 300.556 143.606 301.365 145.52 300.631C146.404 300.292 146.847 299.561 146.504 299.007C145.694 297.696 144.289 297.723 143.459 299.067ZM150 299.5C150 300.325 150.675 301 151.5 301C152.325 301 153 300.325 153 299.5C153 298.675 152.325 298 151.5 298C150.675 298 150 298.675 150 299.5ZM156.543 298.931C155.803 300.128 157.684 301.313 159.016 300.49C160.135 299.799 159.4 298 158 298C157.515 298 156.859 298.419 156.543 298.931ZM299.08 304.403C298.19 305.475 298.235 307.068 299.268 311.153L300.621 316.5L310.389 316.787C319.372 317.051 320.116 316.931 319.633 315.287C319.343 314.304 318.799 311.7 318.423 309.5C318.047 307.3 317.293 304.938 316.747 304.25C315.3 302.427 300.615 302.554 299.08 304.403ZM348.75 319.757L338 320.068V322.936C338 326.07 338.765 325.646 323.5 330.978C306.051 337.072 304.27 337.933 303.055 340.867C302.164 343.018 302.176 344.292 303.107 346.336C303.775 347.801 304.706 349 305.176 349C305.646 349 312.378 345.154 320.135 340.453C327.892 335.752 334.453 332.12 334.714 332.381C335.244 332.911 332.561 334.658 316.25 344.407C310.062 348.106 304.55 351.973 304 353C303.45 354.028 303 356.403 303 358.279C303 361.261 305.154 364.162 320.166 381.401L337.332 401.112L339.398 399.047L341.463 396.981L336.546 387.741C329.332 374.183 324.196 365.921 320.701 362.25C319 360.462 318.091 359 318.681 359C319.272 359 320.318 359.678 321.006 360.507C322.099 361.824 322.556 361.692 324.619 359.466C326.525 357.41 327.783 356.965 331.138 357.163C334.697 357.373 335.67 356.967 337.898 354.345C339.666 352.263 342.674 350.565 347.283 349.048C355.022 346.5 359.053 343.516 361.381 338.61C363.695 333.733 363.053 319.834 360.5 319.556C359.95 319.496 354.663 319.587 348.75 319.757ZM237.25 323.7L232 324.105V331.973V339.841L238.693 340.558C247.701 341.522 262.103 339.662 267.898 336.785C273.319 334.094 274.423 330.978 270.798 328.603C265.583 325.186 249.146 322.784 237.25 323.7ZM223.781 327.147C219.179 329.176 217.171 331.849 218.559 334.095C219.335 335.351 226.835 338.944 228.75 338.978C229.633 338.994 230 336.945 230 332C230 328.15 229.662 325.015 229.25 325.033C228.838 325.051 226.377 326.002 223.781 327.147ZM108.5 330.359C103.446 332.693 100.762 336.42 100.243 341.822C99.974 344.626 100.283 347.659 100.968 348.94C101.625 350.167 101.972 351.361 101.74 351.594C101.508 351.826 97.024 350.377 91.775 348.375C81.164 344.326 77.823 344.312 71.862 348.294C66.351 351.975 65.308 355.32 64.506 371.875C63.888 384.635 64.018 387.133 65.439 389.883C67.202 393.292 71.179 395.517 77.25 396.49C79.313 396.82 81 397.535 81 398.078C81 398.621 79.606 404.931 77.901 412.1C76.197 419.27 75.039 426.041 75.328 427.147C75.751 428.763 75.525 428.995 74.177 428.329C73.255 427.873 69.013 427.606 64.75 427.735C60.169 427.874 57 427.567 57 426.985C57 426.443 55.853 426 54.45 426C53.048 426 50.565 425.309 48.932 424.465C46.19 423.047 45.915 423.066 45.324 424.715C44.972 425.697 43.855 428.654 42.842 431.287C39.922 438.877 40.642 439.855 45.895 435.435C48.515 433.23 49.547 432.962 53.222 433.528C58.989 434.415 78.529 441.453 78.387 442.591C78.325 443.091 76.677 444.346 74.725 445.38C70.498 447.618 68.372 451.46 67.045 459.257C66.506 462.424 65.616 465.574 65.067 466.257C64.519 466.941 62.604 469.248 60.814 471.384L57.558 475.268L61.029 478.207C69.829 485.659 72.76 486.303 69.541 480.079C68.693 478.44 68 476.448 68 475.651C68 474.855 73 468.42 79.112 461.352C85.224 454.283 90.421 448.004 90.662 447.398C90.903 446.792 92.194 446.506 93.532 446.761C100.537 448.101 104 443.642 104 433.282C104 427.942 107.48 403.65 108.476 402.039C109.378 400.58 115.144 402.333 117.896 404.903C119.469 406.372 125.423 409.425 131.128 411.689L141.5 415.803L143.695 413.152C147.604 408.431 149.331 404.453 148.649 401.739C148.122 399.638 146.569 398.629 140.002 396.121C131.455 392.857 129.814 392.942 126.477 396.822C124.696 398.893 124.045 399.095 122.252 398.135C121.086 397.511 119.089 396.993 117.816 396.985C116.542 396.976 114.833 396.548 114.018 396.032C112.769 395.242 112.943 394.654 115.122 392.297C116.545 390.759 119.638 386.9 121.996 383.723C126.123 378.159 126.352 378.009 128.192 379.673C129.331 380.704 131.413 381.314 133.35 381.183C135.938 381.009 137.051 381.577 138.829 383.982C141.481 387.569 142.666 387.657 150.895 384.878L157.179 382.756L160.339 385.128C163.127 387.22 164.484 387.482 171.852 387.348C176.445 387.265 180.698 386.702 181.302 386.098C181.906 385.494 184.983 385 188.141 385C191.299 385 194.116 384.622 194.402 384.159C194.688 383.696 193.591 382.334 191.964 381.132C189.201 379.089 188.813 379.046 186.053 380.473C184.428 381.313 182.453 382 181.662 382C180.069 382 119.856 359.221 119.023 358.303C118.736 357.986 119.171 357.489 119.99 357.2C122.887 356.176 126.835 351.283 128.058 347.2C131.316 336.328 118.838 325.584 108.5 330.359ZM110.462 331.088C102.956 333.21 99.079 342.149 102.52 349.4C104.355 353.268 105.653 353.576 107.429 350.562C108.223 349.214 108.177 348.625 107.25 348.288C106.546 348.032 106 346.157 106 343.998C106 336.716 107.974 335.262 112.755 339.022L115.325 341.043L117.507 338.993C118.818 337.762 120.35 337.197 121.345 337.579C123.574 338.434 123.447 342.573 121.141 344.193C118.205 346.258 113.5 357 115.532 357C117.757 357 123.086 353.688 124.851 351.209C127.413 347.611 127.695 341.245 125.483 336.967C123.048 332.258 116.035 329.513 110.462 331.088ZM218 341.04C218 347.297 219.464 348.852 227.802 351.45C230.04 352.148 230.096 352.01 229.802 346.528L229.5 340.888L223.75 338.556L218 336.223V341.04ZM270.498 337.51C266.158 340.555 256.199 342.174 243.906 341.832L231.997 341.5L231.999 346.691C231.999 349.546 232.487 352.183 233.081 352.55C235.347 353.951 255.487 353.292 261.986 351.604C271.875 349.037 273 348.003 273 341.477C273 338.465 272.887 336.024 272.75 336.052C272.613 336.081 271.599 336.737 270.498 337.51ZM112.278 346.573C109.032 347.993 108.784 349.527 111.278 352.75C112.777 354.688 113.496 354.281 115.315 350.466C118.092 344.643 117.735 344.185 112.278 346.573ZM73.457 348.863C67.788 352.32 66.892 354.901 65.849 370.777C64.798 386.769 65.313 389.664 69.724 392.555C71.244 393.551 80.247 395.492 92.373 397.438C109.369 400.165 112.631 400.449 113.342 399.259C114.385 397.513 115.299 398.134 103.616 392.645C93.037 387.673 91.436 387.351 86.387 389.177C83.813 390.108 82.804 390.082 81.566 389.055C79.303 387.177 79.635 384.588 82.585 381.081C84.508 378.796 85.58 375.699 86.767 369.004C87.645 364.052 88.717 360 89.15 360C89.583 360 89.768 360.563 89.56 361.25C89.353 361.938 88.617 366.058 87.924 370.407C86.926 376.665 86.051 379.011 83.726 381.66C79.031 387.007 81.489 389.468 88.933 386.873C91.86 385.853 93.018 386.152 101.203 390.042C108.039 393.291 110.639 394.091 111.871 393.328C112.767 392.773 116.367 388.619 119.87 384.098L126.24 375.877L128.435 377.938C129.687 379.115 131.974 380 133.764 380C135.981 380 137.748 380.909 139.801 383.105L142.703 386.211L149.811 383.922L156.92 381.632L162.348 384.379C167.241 386.854 168.346 387.045 173.555 386.313C176.734 385.866 179.495 385.019 179.691 384.43C180.237 382.789 85.368 346.999 80.482 347.004C78.292 347.006 75.131 347.842 73.457 348.863ZM107.5 353C107.159 353.552 108.094 354.465 109.579 355.03C113.081 356.362 113.379 355.93 110.462 353.749C109.025 352.674 107.88 352.385 107.5 353ZM243.664 360.985C241.243 369.692 241.327 370 246.117 370C249.895 370 250.184 369.815 249.639 367.75C249.312 366.512 248.512 363.137 247.863 360.25C247.213 357.363 246.377 355 246.005 355C245.633 355 244.579 357.693 243.664 360.985ZM326.223 359.557C323.234 361.65 323.402 362.917 327.485 369.117C329.401 372.027 331.148 374.878 331.368 375.454C331.587 376.031 332.783 375.523 334.035 374.321L336.303 372.141L334.536 365.821C332.275 357.734 330.613 356.482 326.223 359.557ZM249.425 360.179C249.677 361.102 250.184 363.465 250.553 365.429C250.921 367.393 251.623 369 252.111 369C253.503 369 253.12 366.847 250.957 362.5C249.863 360.3 249.173 359.256 249.425 360.179ZM239.626 364.659C238.493 367.034 238.232 368.632 238.874 369.274C239.515 369.915 240.249 368.79 240.993 366.026C242.45 360.617 241.843 360.01 239.626 364.659ZM104.233 370.284C99.771 380.139 100.231 381.168 105 372C109.061 364.193 109.502 362.977 108.25 363.034C107.838 363.053 106.03 366.316 104.233 370.284ZM116.339 368.56C115.588 370.517 116.491 371.409 118.457 370.655C120.435 369.896 120.438 368.382 118.462 367.624C117.577 367.284 116.676 367.681 116.339 368.56ZM238.001 372.143C238 373.29 241.057 374 246 374C248.66 374 251.548 373.727 252.418 373.393C255.814 372.09 253.663 371.446 246.001 371.473C241.601 371.488 238.001 371.789 238.001 372.143ZM235.5 378.115C228.081 379.193 221.254 381.461 218.833 383.651C217.091 385.228 217 388.597 217 451.67V518.029L220.25 520.023C224.34 522.532 228.923 523.86 236.25 524.658C239.412 525.003 242 525.456 242 525.664C242 525.873 240.629 529.068 238.953 532.765C234.46 542.674 236.23 546 246 546C255.692 546 257.065 542.789 252.102 531.728L249.205 525.27L255.352 524.688C262.84 523.979 269.667 521.661 272.722 518.792L275 516.651V451.76C275 412.21 274.625 386.168 274.04 385.075C272.545 382.282 264.212 379.214 254.97 378.055C245.546 376.874 244.016 376.879 235.5 378.115ZM228.791 380.865C222.106 382.609 218 385.165 218 387.582C218 391.874 231.364 396 245.264 396C273.132 396 283.436 385.048 260.201 380.123C252.332 378.455 236.605 378.827 228.791 380.865ZM218 403.272C218 425.56 222.898 434.839 237.587 440.378C245.753 443.457 248.716 446.222 252.47 454.266C255.733 461.26 258.618 463 266.95 463H273V427.5C273 407.975 272.832 392 272.627 392C272.422 392 270.223 392.898 267.741 393.996C256.04 399.172 226.578 397.874 219.336 391.864C218.233 390.949 218 392.941 218 403.272ZM127.736 397.489C126.03 399.833 126.041 399.951 128.046 401.025C130.837 402.518 130.098 404.111 125.94 405.565L122.5 406.768L125.5 407.97C140.098 413.823 141.203 414.099 142.635 412.256C146.323 407.512 148.095 403.875 147.552 402.165C146.934 400.215 135.12 394.973 131.475 395.031C130.389 395.049 128.706 396.154 127.736 397.489ZM82.033 400.917C79.385 410.854 77 422.433 77 425.345C77 427.141 77.931 431.37 79.07 434.741C81.53 442.026 80.888 443.996 75.09 446.954C70.662 449.213 70.288 449.949 68.557 459.788C67.378 466.493 67.416 467.152 69.037 468.02C70.502 468.804 72.347 467.156 80 458.231C85.061 452.329 89.597 446.6 90.079 445.5C92.401 440.201 106.908 401.575 106.666 401.333C106.514 401.181 101.124 400.219 94.689 399.196L82.987 397.334L82.033 400.917ZM221.5 398C221.16 398.55 221.584 399 222.441 399C223.298 399 224 398.55 224 398C224 397.45 223.577 397 223.059 397C222.541 397 221.84 397.45 221.5 398ZM268 398C268 398.55 268.45 399 269 399C269.55 399 270 398.55 270 398C270 397.45 269.55 397 269 397C268.45 397 268 397.45 268 398ZM221.553 404.915C221.231 405.436 221.394 406.125 221.915 406.447C222.436 406.769 223.125 406.606 223.447 406.085C223.769 405.564 223.606 404.875 223.085 404.553C222.564 404.231 221.875 404.394 221.553 404.915ZM228 404.941C228 405.459 228.45 406.16 229 406.5C229.55 406.84 230 406.416 230 405.559C230 404.702 229.55 404 229 404C228.45 404 228 404.423 228 404.941ZM235 405.5C235 406.325 235.45 407 236 407C236.55 407 237 406.325 237 405.5C237 404.675 236.55 404 236 404C235.45 404 235 404.675 235 405.5ZM241.553 404.915C241.231 405.436 241.394 406.125 241.915 406.447C242.436 406.769 243.125 406.606 243.447 406.085C243.769 405.564 243.606 404.875 243.085 404.553C242.564 404.231 241.875 404.394 241.553 404.915ZM248 405.5C248 406.325 248.45 407 249 407C249.55 407 250 406.325 250 405.5C250 404.675 249.55 404 249 404C248.45 404 248 404.675 248 405.5ZM254.543 404.931C253.86 406.036 255.437 407.23 256.361 406.306C257.311 405.355 257.134 404 256.059 404C255.541 404 254.859 404.419 254.543 404.931ZM261.553 404.915C261.231 405.436 261.394 406.125 261.915 406.447C262.436 406.769 263.125 406.606 263.447 406.085C263.769 405.564 263.606 404.875 263.085 404.553C262.564 404.231 261.875 404.394 261.553 404.915ZM268 405.5C268 406.325 268.45 407 269 407C269.55 407 270 406.325 270 405.5C270 404.675 269.55 404 269 404C268.45 404 268 404.675 268 405.5ZM221.5 412C221.16 412.55 221.584 413 222.441 413C223.298 413 224 412.55 224 412C224 411.45 223.577 411 223.059 411C222.541 411 221.84 411.45 221.5 412ZM228 412C228 412.55 228.45 413 229 413C229.55 413 230 412.55 230 412C230 411.45 229.55 411 229 411C228.45 411 228 411.45 228 412ZM235 412C235 412.55 235.45 413 236 413C236.55 413 237 412.55 237 412C237 411.45 236.55 411 236 411C235.45 411 235 411.45 235 412ZM241 412C241 412.55 241.675 413 242.5 413C243.325 413 244 412.55 244 412C244 411.45 243.325 411 242.5 411C241.675 411 241 411.45 241 412ZM248 412C248 412.55 248.45 413 249 413C249.55 413 250 412.55 250 412C250 411.45 249.55 411 249 411C248.45 411 248 411.45 248 412ZM255 412C255 412.55 255.45 413 256 413C256.55 413 257 412.55 257 412C257 411.45 256.55 411 256 411C255.45 411 255 411.45 255 412ZM261 412C261 412.55 261.45 413 262 413C262.55 413 263 412.55 263 412C263 411.45 262.55 411 262 411C261.45 411 261 411.45 261 412ZM268 412C268 412.55 268.45 413 269 413C269.55 413 270 412.55 270 412C270 411.45 269.55 411 269 411C268.45 411 268 411.45 268 412ZM98.193 428.219C93.516 440.404 92.299 444.572 93.246 445.173C97.245 447.712 101.99 443.968 102.02 438.25C102.03 436.188 102.694 429.576 103.495 423.559C104.296 417.541 104.826 412.492 104.673 412.339C104.52 412.186 101.604 419.332 98.193 428.219ZM221.597 417.844C221.251 418.404 221.455 419.163 222.05 419.531C223.588 420.481 224.58 419.18 223.296 417.896C222.578 417.178 222.019 417.161 221.597 417.844ZM228.583 417.866C228.152 418.563 228.07 419.403 228.4 419.733C229.295 420.628 230.271 419.312 229.787 417.862C229.449 416.846 229.213 416.846 228.583 417.866ZM235 418.441C235 419.298 235.45 420 236 420C236.55 420 237 419.577 237 419.059C237 418.541 236.55 417.84 236 417.5C235.45 417.16 235 417.584 235 418.441ZM241.553 417.915C241.231 418.436 241.394 419.125 241.915 419.447C242.436 419.769 243.125 419.606 243.447 419.085C243.769 418.564 243.606 417.875 243.085 417.553C242.564 417.231 241.875 417.394 241.553 417.915ZM255 418.441C255 419.298 255.45 420 256 420C256.55 420 257 419.577 257 419.059C257 418.541 256.55 417.84 256 417.5C255.45 417.16 255 417.584 255 418.441ZM261.469 418.05C260.519 419.588 261.82 420.58 263.104 419.296C263.822 418.578 263.839 418.019 263.156 417.597C262.596 417.251 261.837 417.455 261.469 418.05ZM248 419C248 419.55 248.45 420 249 420C249.55 420 250 419.55 250 419C250 418.45 249.55 418 249 418C248.45 418 248 418.45 248 419ZM268 419C268 419.55 268.45 420 269 420C269.55 420 270 419.55 270 419C270 418.45 269.55 418 269 418C268.45 418 268 418.45 268 419ZM285 421.895L282.5 422.59V483.045V543.5L286.78 545.66C289.134 546.848 293.327 548.132 296.097 548.513C300.263 549.086 301.013 549.491 300.43 550.853C298.343 555.728 297.632 560.032 298.731 561.131C300.401 562.801 307.887 562.542 309.676 560.752C311.036 559.392 310.976 558.733 309.098 554.489C306.566 548.765 306.579 549 308.79 549C312.256 549 322.462 545.891 324.221 544.3C327.842 541.023 326.614 534.113 312.452 478.092C301.768 435.828 298.468 424.13 296.841 422.75C294.733 420.962 289.669 420.596 285 421.895ZM196.255 423.75C194.764 425.076 190.976 438.7 180.616 480C173.096 509.975 166.956 536.395 166.972 538.711C167.015 545.096 169.942 547.099 182.821 549.556C184.726 549.92 185.958 550.682 185.712 551.345C181.762 561.973 182.039 563 188.846 563C195.746 563 196.858 561.386 194.187 555.246L192.123 550.5L195.812 549.711C203.731 548.016 207.571 546.74 209.25 545.246C210.88 543.797 211 539.582 211 483.88C211 425.771 210.945 424.041 209.066 423.035C205.939 421.362 198.471 421.778 196.255 423.75ZM218.037 438.572C217.998 455.407 219.195 462.106 222.81 465.284C225.099 467.298 230.285 467.933 244.5 467.94C256.747 467.947 266.239 469.622 270.75 472.574C272.965 474.023 273 473.978 273 469.668V465.289L266.528 464.685C257.392 463.832 254.673 462.131 251.47 455.266C247.734 447.261 244.763 444.466 236.722 441.394C228.189 438.133 223.858 434.456 220.583 427.688L218.073 422.5L218.037 438.572ZM284.525 423.96C284.166 424.54 284.521 425.263 285.314 425.567C287.638 426.459 296.522 425.593 296.262 424.5C295.934 423.128 285.34 422.64 284.525 423.96ZM196.565 424.895C195.799 426.135 198.443 427 203 427C205.11 427 207.546 426.728 208.412 426.395C211.51 425.207 208.783 424 203 424C199.765 424 196.869 424.403 196.565 424.895ZM228 424.941C228 425.459 228.45 426.16 229 426.5C229.55 426.84 230 426.416 230 425.559C230 424.702 229.55 424 229 424C228.45 424 228 424.423 228 424.941ZM235 425.559C235 426.416 235.45 426.84 236 426.5C236.55 426.16 237 425.459 237 424.941C237 424.423 236.55 424 236 424C235.45 424 235 424.702 235 425.559ZM241.553 424.915C241.231 425.436 241.394 426.125 241.915 426.447C242.436 426.769 243.125 426.606 243.447 426.085C243.769 425.564 243.606 424.875 243.085 424.553C242.564 424.231 241.875 424.394 241.553 424.915ZM248 424.941C248 425.459 248.45 426.16 249 426.5C249.55 426.84 250 426.416 250 425.559C250 424.702 249.55 424 249 424C248.45 424 248 424.423 248 424.941ZM255 425.559C255 426.416 255.45 426.84 256 426.5C256.55 426.16 257 425.459 257 424.941C257 424.423 256.55 424 256 424C255.45 424 255 424.702 255 425.559ZM261.15 424.95C261.58 426.239 262.951 426.471 263.075 425.275C263.116 424.876 262.61 424.37 261.95 424.15C261.29 423.93 260.93 424.29 261.15 424.95ZM268 425.559C268 426.416 268.45 426.84 269 426.5C269.55 426.16 270 425.459 270 424.941C270 424.423 269.55 424 269 424C268.45 424 268 424.702 268 425.559ZM283.059 457.305L282.987 487.22L285.744 486.478C287.26 486.071 290.205 485.403 292.29 484.995C294.374 484.588 296.265 484.068 296.493 483.841C296.905 483.429 297.138 465.198 297.047 440.5L296.999 427.5L290.065 427.445L283.131 427.389L283.059 457.305ZM66 428.549C65.175 428.724 62.813 429.142 60.75 429.479C54.34 430.525 56.312 432.519 67.62 436.425C73.461 438.443 78.455 439.878 78.719 439.614C80.023 438.31 76.573 431.899 73.568 430.042C70.39 428.078 69.271 427.857 66 428.549ZM196 456.45V484.724L201.25 485.787C204.137 486.372 207.287 487.158 208.25 487.532C209.893 488.172 210 486.377 210 458.195V428.176H203H196V456.45ZM235 432C235 432.55 235.45 433 236 433C236.55 433 237 432.55 237 432C237 431.45 236.55 431 236 431C235.45 431 235 431.45 235 432ZM241 432C241 432.55 241.675 433 242.5 433C243.325 433 244 432.55 244 432C244 431.45 243.325 431 242.5 431C241.675 431 241 431.45 241 432ZM248 432C248 432.55 248.45 433 249 433C249.55 433 250 432.55 250 432C250 431.45 249.55 431 249 431C248.45 431 248 431.45 248 432ZM255 432C255 432.55 255.45 433 256 433C256.55 433 257 432.55 257 432C257 431.45 256.55 431 256 431C255.45 431 255 431.45 255 432ZM261 432C261 432.55 261.45 433 262 433C262.55 433 263 432.55 263 432C263 431.45 262.55 431 262 431C261.45 431 261 431.45 261 432ZM268 432C268 432.55 268.45 433 269 433C269.55 433 270 432.55 270 432C270 431.45 269.55 431 269 431C268.45 431 268 431.45 268 432ZM299.158 434C299.158 435.375 299.385 435.938 299.662 435.25C299.94 434.563 299.94 433.438 299.662 432.75C299.385 432.063 299.158 432.625 299.158 434ZM193.583 434.866C193.152 435.563 193.07 436.403 193.4 436.733C194.295 437.628 195.271 436.312 194.787 434.862C194.449 433.846 194.213 433.846 193.583 434.866ZM248.583 437.866C248.152 438.563 248.07 439.403 248.4 439.733C249.295 440.628 250.271 439.312 249.787 437.862C249.449 436.846 249.213 436.846 248.583 437.866ZM254.597 437.844C254.251 438.404 254.455 439.163 255.05 439.531C256.588 440.481 257.58 439.18 256.296 437.896C255.578 437.178 255.019 437.161 254.597 437.844ZM261.553 437.915C261.231 438.436 261.394 439.125 261.915 439.447C262.436 439.769 263.125 439.606 263.447 439.085C263.769 438.564 263.606 437.875 263.085 437.553C262.564 437.231 261.875 437.394 261.553 437.915ZM268 438.5C268 439.325 268.45 440 269 440C269.55 440 270 439.325 270 438.5C270 437.675 269.55 437 269 437C268.45 437 268 437.675 268 438.5ZM299.75 437.572C299.337 437.991 299 439.473 299 440.867C299 442.687 299.305 443.095 300.085 442.315C300.681 441.719 301.019 440.236 300.835 439.02C300.651 437.805 300.163 437.153 299.75 437.572ZM192.473 439.317C192.06 440.334 192.226 441.626 192.851 442.251C194.538 443.938 195.454 442.321 194.263 439.76C193.298 437.686 193.151 437.65 192.473 439.317ZM191 445.145C191 447.551 192.614 450 194.2 450C195.775 450 194.962 446.276 193 444.5C191.052 442.737 191 442.753 191 445.145ZM300.079 444.405C299.395 445.229 298.985 446.65 299.167 447.562C299.466 449.049 299.676 449.026 301.199 447.338C302.202 446.227 302.576 444.932 302.111 444.18C301.489 443.174 301.062 443.221 300.079 444.405ZM255 445C255 445.55 255.45 446 256 446C256.55 446 257 445.55 257 445C257 444.45 256.55 444 256 444C255.45 444 255 444.45 255 445ZM261 445C261 445.55 261.702 446 262.559 446C263.416 446 263.84 445.55 263.5 445C263.16 444.45 262.459 444 261.941 444C261.423 444 261 444.45 261 445ZM268 445C268 445.55 268.45 446 269 446C269.55 446 270 445.55 270 445C270 444.45 269.55 444 269 444C268.45 444 268 444.45 268 445ZM300.634 449.852C299.735 450.845 299 452.713 299 454.003V456.349L301.5 454C302.875 452.708 304 451.081 304 450.385C304 448.224 302.344 447.963 300.634 449.852ZM189.703 450.331C189.39 451.148 190.416 452.982 192.075 454.572C194.745 457.13 195 457.199 195 455.361C195 452.615 190.476 448.318 189.703 450.331ZM261 452C261 452.55 261.423 453 261.941 453C262.459 453 263.16 452.55 263.5 452C263.84 451.45 263.416 451 262.559 451C261.702 451 261 451.45 261 452ZM268 452C268 452.55 268.45 453 269 453C269.55 453 270 452.55 270 452C270 451.45 269.55 451 269 451C268.45 451 268 451.45 268 452ZM301.75 455.731C300.238 457.314 299 459.476 299 460.535C299 462.185 299.446 462.016 302.099 459.363C303.803 457.658 305.041 455.497 304.849 454.558C304.558 453.137 304.041 453.333 301.75 455.731ZM188.441 455.31C187.955 456.566 188.602 458.019 190.557 460.06C195.631 465.356 197.035 462.301 192.071 456.766C189.475 453.87 189.063 453.705 188.441 455.31ZM261.15 457.95C261.37 458.61 261.876 459.116 262.275 459.075C263.471 458.951 263.239 457.58 261.95 457.15C261.29 456.93 260.93 457.29 261.15 457.95ZM268 458.5C268 459.325 268.45 460 269 460C269.55 460 270 459.325 270 458.5C270 457.675 269.55 457 269 457C268.45 457 268 457.675 268 458.5ZM302.205 461.288C300.379 463.172 299 465.644 299 467.033C299 469.345 299.213 469.258 303.116 465.354C306.255 462.215 307.016 460.851 306.321 459.61C305.534 458.203 304.974 458.431 302.205 461.288ZM187 460.681C187 462.473 192.726 469 194.298 469C196.571 469 193.287 463.779 188.718 460.128C187.214 458.926 187 458.995 187 460.681ZM185.628 465.528C185.115 466.864 186.061 468.506 189.172 471.676C191.507 474.054 193.773 476 194.208 476C196.231 476 194.605 472.466 190.664 468.294C186.911 464.322 186.233 463.95 185.628 465.528ZM302.703 467.792C300.666 469.878 299 472.447 299 473.5C299 475.018 299.936 474.498 303.5 471C307.627 466.95 309.187 464 307.203 464C306.765 464 304.74 465.706 302.703 467.792ZM237 470.002C237 471.752 248.835 479.795 254.563 481.938C261.456 484.517 264.052 484.524 269.04 481.98C272.029 480.455 273 479.357 273 477.505C273 474.422 269.288 472.381 260.164 470.447C252.418 468.805 237 468.509 237 470.002ZM303.208 473.288C300.6 475.945 299 478.498 299 480C299 482.233 299.396 482.035 304 477.5C306.75 474.791 309 471.771 309 470.788C309 468.08 307.818 468.59 303.208 473.288ZM184 471.797C184 473.387 188.6 478.446 193.083 481.788C194.371 482.748 194.675 482.645 194.711 481.234C194.755 479.533 186.334 470 184.788 470C184.354 470 184 470.809 184 471.797ZM304.622 478.877C300.917 482.638 300.193 483.86 301.395 484.321C302.29 484.665 304.235 483.831 305.995 482.35C309.692 479.24 311.108 476.793 310.129 475.209C309.641 474.419 307.813 475.636 304.622 478.877ZM183 476.804C183 479.063 189.011 485 191.298 485C192.234 485 193 485.45 193 486C193 486.55 191.313 486.993 189.25 486.985C187.006 486.976 186.003 486.65 186.752 486.174C187.669 485.592 187.225 484.632 185.1 482.595C182.469 480.075 182.146 479.986 181.677 481.656C181.392 482.67 180.868 484.513 180.512 485.751C179.917 487.821 180.071 487.923 182.432 487.026C185.737 485.769 185.795 487.317 182.5 488.818C175.79 491.875 182.603 495.5 195 495.468C203.945 495.444 209.5 493.728 209.5 490.987C209.5 489.116 203.817 487.13 198.25 487.056C195.48 487.02 194 486.552 194 485.712C194 484.384 184.991 475 183.716 475C183.322 475 183 475.812 183 476.804ZM307.648 482.414C306.114 484.756 306.16 484.86 309.196 485.918C310.916 486.518 312.479 486.854 312.669 486.664C312.859 486.475 312.73 484.898 312.382 483.16C311.628 479.389 309.818 479.103 307.648 482.414ZM218.228 499.337L218.5 517.39L221.5 519.126C223.15 520.08 225.738 521.166 227.25 521.539L230 522.217L230.199 510.858L230.399 499.5L230.949 510.986L231.5 522.471L235.5 523.178C240.656 524.089 249.469 524.172 255.36 523.364L260 522.728V511.364C260 504.455 260.392 500 261 500C261.606 500 262 504.333 262 511C262 517.305 262.407 522 262.953 522C264.478 522 269.345 519.743 271.25 518.152C272.793 516.863 273 514.641 273 499.345C273 483.703 272.438 479.864 270.586 482.861C269.737 484.234 259.122 486.837 251.5 487.54C242.371 488.383 228.743 486.516 222.728 483.599L217.956 481.284L218.228 499.337ZM288 487.306C282.781 489.086 283.236 492.029 289 493.776C297.432 496.331 314 493.885 314 490.086C314 486.694 295.573 484.724 288 487.306ZM310 494.563C308.075 495.291 303.688 495.913 300.25 495.944L294 496V516.871V537.742L299.75 538.361C309.62 539.425 322.395 536.741 323.704 533.33C324.4 531.515 315.221 492.918 314.141 493.119C313.788 493.185 311.925 493.835 310 494.563ZM173.616 513.496C170.958 524.219 169.036 533.65 169.344 534.454C170.354 537.087 180.018 539.101 190.14 538.789L199.5 538.5L199.77 517.75L200.041 497L193.77 496.956C190.322 496.932 185.7 496.264 183.5 495.471C181.3 494.679 179.263 494.023 178.974 494.015C178.685 494.007 176.273 502.773 173.616 513.496ZM208.203 494.854C207.166 495.511 207.217 495.935 208.453 496.961C209.766 498.051 210 497.925 210 496.122C210 493.731 209.987 493.722 208.203 494.854ZM283 495.622C283 496.951 283.271 497.02 284.5 496C285.325 495.315 286 494.585 286 494.378C286 494.17 285.325 494 284.5 494C283.675 494 283 494.73 283 495.622ZM285.455 497.455C283.089 499.82 282.143 503 283.804 503C285.175 503 291.075 496.408 290.351 495.684C289.165 494.498 287.984 494.926 285.455 497.455ZM203 496.804C203 497.246 204.575 499.134 206.5 501C209.561 503.967 210 504.139 210 502.37C210 501.258 208.958 499.37 207.686 498.174C205.363 495.993 203 495.301 203 496.804ZM287.25 502.232C283.421 506.145 281.708 510 283.797 510C284.235 510 286.299 508.254 288.382 506.12C290.918 503.524 292.06 501.521 291.835 500.065C291.529 498.078 291.129 498.267 287.25 502.232ZM201 500.792C201 501.777 203.025 504.571 205.5 507C209.794 511.214 210 511.302 210 508.911C210 507.329 208.603 505.042 206.208 502.703C201.952 498.547 201 498.198 201 500.792ZM201 507.089C201 509.377 207.378 517 209.292 517C211.397 517 209.436 512.863 205.5 509C201.206 504.786 201 504.698 201 507.089ZM286.616 509.003C283.255 512.724 281.935 516 283.797 516C285.304 516 292 508.415 292 506.708C292 504.041 290.535 504.665 286.616 509.003ZM287.25 515.232C283.421 519.145 281.708 523 283.797 523C284.235 523 286.299 521.254 288.382 519.12C290.918 516.524 292.06 514.521 291.835 513.065C291.529 511.078 291.129 511.267 287.25 515.232ZM201 513.708C201 514.74 203.025 517.571 205.5 520C208.931 523.367 210 523.98 210 522.579C210 520.909 203.752 512.964 201.811 512.167C201.365 511.983 201 512.677 201 513.708ZM201 520.089C201 522.377 207.378 530 209.292 530C211.397 530 209.436 525.863 205.5 522C201.206 517.786 201 517.698 201 520.089ZM287.25 522.236C284.913 524.623 283 527.453 283 528.525C283 530.072 283.947 529.527 287.6 525.874C290.286 523.187 292.054 520.572 291.85 519.585C291.578 518.272 290.554 518.862 287.25 522.236ZM287.25 528.232C283.421 532.145 281.708 536 283.797 536C284.235 536 286.299 534.254 288.382 532.12C290.918 529.524 292.06 527.521 291.835 526.065C291.529 524.078 291.129 524.267 287.25 528.232ZM201 526.584C201 527.684 203.025 530.571 205.5 533C209.195 536.626 210 537.058 210 535.416C210 534.316 207.975 531.429 205.5 529C201.805 525.374 201 524.942 201 526.584ZM244.009 529.123C243.384 531.53 242.495 534.932 242.035 536.683C241.001 540.615 241.37 541 246.167 541C250.542 541 250.555 540.95 248.423 532.644C246.35 524.573 245.39 523.806 244.009 529.123ZM201 533.089C201 535.377 207.378 543 209.292 543C211.397 543 209.436 538.863 205.5 535C201.206 530.786 201 530.698 201 533.089ZM239.626 534.659C238.493 537.034 238.232 538.632 238.874 539.274C239.515 539.915 240.249 538.79 240.993 536.026C242.45 530.617 241.843 530.01 239.626 534.659ZM287.046 535.444C284.069 538.484 282.924 540.324 283.594 540.994C284.938 542.338 292.309 534.801 291.845 532.559C291.582 531.291 290.442 531.976 287.046 535.444ZM250.575 535C251.26 538.771 252.459 540.685 253.292 539.337C253.577 538.876 252.939 536.924 251.874 535L249.939 531.5L250.575 535ZM169.189 540.187C169.492 544.386 169.632 544.545 174.5 546.223C178.169 547.488 182.162 547.887 189.5 547.723L199.5 547.5L199.808 543.782L200.117 540.064L193.715 540.662C186.456 541.34 174.642 539.616 171.189 537.375C168.889 535.881 168.88 535.894 169.189 540.187ZM319.5 537.737C316.77 538.827 312.087 539.36 304.751 539.417L294.001 539.5V543.121C294 546.712 294.042 546.748 299 547.406C307.395 548.519 319.593 546.413 323.25 543.219C324.948 541.736 325.76 535.929 324.25 536.07C323.837 536.109 321.7 536.859 319.5 537.737ZM288.183 540.299C285.282 543.303 285.085 543.819 286.616 544.406C288.96 545.305 292.273 541.917 291.837 539.067C291.517 536.976 291.33 537.04 288.183 540.299ZM201 539.63C201 542.22 205.118 546.163 206.762 545.147C207.633 544.609 206.971 543.395 204.497 540.997C201.438 538.032 201 537.861 201 539.63ZM238.318 542.454C238.869 544.106 244.965 545.125 249.238 544.28C256.223 542.898 254.594 541.5 246 541.5C241.368 541.5 238.134 541.902 238.318 542.454ZM290.5 545C290.16 545.55 290.359 546 290.941 546C291.523 546 292 545.55 292 545C292 544.45 291.802 544 291.559 544C291.316 544 290.84 544.45 290.5 545ZM201 546C201 546.55 201.45 547 202 547C202.55 547 203 546.55 203 546C203 545.45 202.55 545 202 545C201.45 545 201 545.45 201 546ZM301.101 553.25C299.309 557.443 299.312 557.51 301.332 558.288C303.276 559.036 309 558.359 309 557.381C309 555.958 304.798 549 303.939 549C303.377 549 302.1 550.913 301.101 553.25ZM186.513 553.622C184.364 558.767 184.493 559 189.5 559C191.975 559 194 558.784 194 558.52C194 556.482 190.504 550 189.405 550C188.647 550 187.346 551.63 186.513 553.622ZM304 560L299.5 560.7L303.691 560.85C305.996 560.932 308.16 560.55 308.5 560C308.84 559.45 308.979 559.068 308.809 559.15C308.639 559.233 306.475 559.615 304 560ZM184.651 561.245C185.257 562.225 192.741 562.23 193.341 561.25C193.594 560.837 191.637 560.498 188.993 560.495C186.348 560.492 184.395 560.83 184.651 561.245ZM238.054 570.035C224.498 572.864 232.593 580.696 248.056 579.712C264.564 578.661 265.2 570.842 248.879 569.594C245.371 569.326 240.5 569.524 238.054 570.035Z" fill="#6E508C"/>
</svg>
